<?xml version="1.0" encoding="UTF-8" standalone="no"?>
<!-- Created with Inkscape (http://www.inkscape.org/) -->

<svg
   xmlns:dc="http://purl.org/dc/elements/1.1/"
   xmlns:cc="http://creativecommons.org/ns#"
   xmlns:rdf="http://www.w3.org/1999/02/22-rdf-syntax-ns#"
   xmlns:svg="http://www.w3.org/2000/svg"
   xmlns="http://www.w3.org/2000/svg"
   xmlns:sodipodi="http://sodipodi.sourceforge.net/DTD/sodipodi-0.dtd"
   xmlns:inkscape="http://www.inkscape.org/namespaces/inkscape"
   width="297mm"
   height="210mm"
   viewBox="0 0 297 210"
   version="1.1"
   id="svg8"
   inkscape:version="0.92.4 (5da689c313, 2019-01-14)"
   sodipodi:docname="disegno.svg">
  <defs
     id="defs2">
    <inkscape:path-effect
       effect="spiro"
       id="path-effect4044"
       is_visible="true" />
    <inkscape:path-effect
       effect="spiro"
       id="path-effect4040"
       is_visible="true" />
    <inkscape:path-effect
       effect="spiro"
       id="path-effect4036"
       is_visible="true" />
    <inkscape:path-effect
       effect="spiro"
       id="path-effect4032"
       is_visible="true" />
    <inkscape:path-effect
       effect="spiro"
       id="path-effect4028"
       is_visible="true" />
    <inkscape:path-effect
       effect="spiro"
       id="path-effect4024"
       is_visible="true" />
    <inkscape:path-effect
       effect="spiro"
       id="path-effect4020"
       is_visible="true" />
    <inkscape:path-effect
       effect="spiro"
       id="path-effect4016"
       is_visible="true" />
    <inkscape:path-effect
       effect="spiro"
       id="path-effect4012"
       is_visible="true" />
    <inkscape:path-effect
       effect="spiro"
       id="path-effect4008"
       is_visible="true" />
    <inkscape:path-effect
       effect="spiro"
       id="path-effect4004"
       is_visible="true" />
    <inkscape:path-effect
       effect="spiro"
       id="path-effect4000"
       is_visible="true" />
    <inkscape:path-effect
       effect="spiro"
       id="path-effect3996"
       is_visible="true" />
    <inkscape:path-effect
       effect="spiro"
       id="path-effect3992"
       is_visible="true" />
    <inkscape:path-effect
       effect="spiro"
       id="path-effect3988"
       is_visible="true" />
    <inkscape:path-effect
       effect="spiro"
       id="path-effect3935"
       is_visible="true" />
    <inkscape:path-effect
       effect="spiro"
       id="path-effect3931"
       is_visible="true" />
    <inkscape:path-effect
       effect="spiro"
       id="path-effect3927"
       is_visible="true" />
    <inkscape:path-effect
       effect="spiro"
       id="path-effect3923"
       is_visible="true" />
    <inkscape:path-effect
       effect="spiro"
       id="path-effect3919"
       is_visible="true" />
    <inkscape:path-effect
       effect="spiro"
       id="path-effect3915"
       is_visible="true" />
    <inkscape:path-effect
       effect="spiro"
       id="path-effect3876"
       is_visible="true" />
    <inkscape:path-effect
       effect="spiro"
       id="path-effect3872"
       is_visible="true" />
    <inkscape:path-effect
       effect="spiro"
       id="path-effect3868"
       is_visible="true" />
    <inkscape:path-effect
       effect="spiro"
       id="path-effect3876-7"
       is_visible="true" />
    <inkscape:path-effect
       effect="spiro"
       id="path-effect3992-7"
       is_visible="true" />
    <inkscape:path-effect
       effect="spiro"
       id="path-effect3988-8"
       is_visible="true" />
  </defs>
  <sodipodi:namedview
     id="base"
     pagecolor="#ffffff"
     bordercolor="#666666"
     borderopacity="1.0"
     inkscape:pageopacity="0.0"
     inkscape:pageshadow="2"
     inkscape:zoom="1.1074702"
     inkscape:cx="544.92908"
     inkscape:cy="396.85039"
     inkscape:document-units="mm"
     inkscape:current-layer="layer1"
     showgrid="false"
     inkscape:window-width="1855"
     inkscape:window-height="1057"
     inkscape:window-x="-8"
     inkscape:window-y="-8"
     inkscape:window-maximized="1" />
  <metadata
     id="metadata5">
    <rdf:RDF>
      <cc:Work
         rdf:about="">
        <dc:format>image/svg+xml</dc:format>
        <dc:type
           rdf:resource="http://purl.org/dc/dcmitype/StillImage" />
        <dc:title />
      </cc:Work>
    </rdf:RDF>
  </metadata>
  <g
     inkscape:label="Livello 1"
     inkscape:groupmode="layer"
     id="layer1"
     transform="translate(0,-87)">
    <rect
       id="rect3053"
       width="72.564217"
       height="86.131584"
       x="232.98318"
       y="179.05139"
       style="fill:#b7bdce;fill-opacity:1;stroke:none;stroke-width:0.39071977"
       transform="matrix(1,0,-0.26770423,0.96350114,0,0)" />
    <path
       style="fill:#e1e8e7;fill-opacity:1;stroke:none;stroke-width:0.26458332px;stroke-linecap:butt;stroke-linejoin:miter;stroke-opacity:1"
       d="m 414.89148,82.09218 c 3.3567,-15.921173 7.60512,-31.63976 11.25858,-47.495465 0.2139,-0.928305 0.42586,-1.85747 0.68074,-2.775368 0.56884,-2.048559 1.34861,-4.03114 2.09463,-6.022028 0.28242,-0.753691 0.56292,-1.514797 0.9849,-2.200172 0.42199,-0.685376 1.00125,-1.298626 1.73808,-1.622506 0.55491,-0.243917 1.17647,-0.313182 1.78044,-0.261827 1.24214,0.105617 2.40407,0.708272 3.3514,1.518598 1.1313,0.967687 1.98835,2.229192 2.60352,3.584849 0.61518,1.355658 0.99666,2.806852 1.27151,4.269968 0.49544,2.63743 0.65133,5.349615 0.31419,8.011914 -0.22422,1.77061 -0.66364,3.50588 -1.09968,5.236546 -3.16304,12.55435 -6.20044,25.140353 -9.11159,37.75549 0.0505,0.388863 -0.004,0.790903 -0.15709,1.152042 -0.15114,0.357221 -0.39607,0.671967 -0.69391,0.920441 -0.29784,0.248475 -0.64764,0.431644 -1.01621,0.552516 -0.73713,0.241744 -1.53583,0.233878 -2.30297,0.11857 -0.76713,-0.115308 -1.51423,-0.334285 -2.26996,-0.509429 -0.75572,-0.175143 -1.53168,-0.307232 -2.30487,-0.244253 -1.35968,0.11075 -2.60619,0.812694 -3.9542,1.022084 -0.67401,0.104695 -1.38521,0.0795 -2.00858,-0.197372 -0.31168,-0.138436 -0.59746,-0.339201 -0.82096,-0.596801 -0.2235,-0.2576 -0.38329,-0.572828 -0.44269,-0.90866 -0.0768,-0.433899 0.0138,-0.877981 0.10472,-1.309137 z"
       id="path3866"
       inkscape:connector-curvature="0"
       inkscape:path-effect="#path-effect3868"
       inkscape:original-d="m 414.89148,82.09218 c 0.0346,-0.436113 7.50599,-31.663907 11.25858,-47.495465 3.75258,-15.831557 0.4541,-1.850512 0.68074,-2.775368 0.22664,-0.924859 1.39668,-4.014951 2.09463,-6.022028 0.69794,-2.007078 1.8156,-2.548717 2.72298,-3.822678 0.90742,-1.273961 1.18722,-0.174816 1.78044,-0.261827 0.59322,-0.08701 2.23451,1.012134 3.3514,1.518598 1.11686,0.506464 2.58363,5.236281 3.87503,7.854817 1.29141,2.618539 0.20974,5.341011 0.31419,8.011914 0.10446,2.670903 -0.73284,3.490767 -1.09968,5.236546 -0.36682,1.745779 -5.81229,29.690947 -9.11159,37.75549 -3.03745,12.620339 -0.10446,0.802673 -0.15709,1.152042 -0.0526,0.349366 -5.72502,0.5583 -8.58792,0.837845 -2.86292,0.279548 -4.81738,-0.454096 -7.22643,-0.680749 -2.40909,-0.226653 0.0701,-0.873022 0.10472,-1.309137 z"
       sodipodi:nodetypes="csscccccccccscc"
       transform="matrix(1.3766717,0,0,1.3766717,-340.07246,142.20518)" />
    <rect
       style="fill:#ffff00;fill-opacity:1;stroke:none;stroke-width:6.88335848;stroke-linecap:round;stroke-miterlimit:2.9000001;stroke-dasharray:none;stroke-opacity:1"
       id="rect4542"
       width="16.508598"
       height="16.508598"
       x="53.963821"
       y="186.4073"
       ry="0"
       transform="rotate(3.3524111)" />
    <rect
       style="fill:#b2df00;fill-opacity:1;stroke:none;stroke-width:6.88335848;stroke-linecap:round;stroke-miterlimit:2.9000001;stroke-dasharray:none;stroke-opacity:1"
       id="rect4542-9"
       width="16.508598"
       height="16.508598"
       x="-1.7094876"
       y="216.01448"
       ry="0"
       transform="rotate(-12.941201)" />
    <path
       style="fill:#bcbdcd;fill-opacity:1;stroke:none;stroke-width:0.3742612px;stroke-linecap:butt;stroke-linejoin:miter;stroke-opacity:1"
       d="m 123.12647,236.97407 -4.66193,-31.0708 H 98.827945 l -7.204811,31.0708 z"
       id="path839"
       inkscape:connector-curvature="0" />
    <rect
       style="fill:#ff0000;fill-opacity:1;stroke:none;stroke-width:6.88335848;stroke-linecap:round;stroke-miterlimit:2.9000001;stroke-dasharray:none;stroke-opacity:1"
       id="rect843"
       width="31.298866"
       height="12.437986"
       x="248.15443"
       y="242.78119"
       ry="0" />
    <rect
       style="fill:#e00000;fill-opacity:1;stroke:none;stroke-width:6.88335848;stroke-linecap:round;stroke-miterlimit:2.9000001;stroke-dasharray:none;stroke-opacity:1"
       id="rect845"
       width="28.699099"
       height="12.437963"
       x="219.45543"
       y="242.78119" />
    <rect
       style="fill:#d6d6d9;fill-opacity:1;stroke:none;stroke-width:6.88335848;stroke-linecap:round;stroke-miterlimit:2.9000001;stroke-dasharray:none;stroke-opacity:1"
       id="rect847"
       width="22.735008"
       height="7.0855742"
       x="219.45543"
       y="245.38095" />
    <rect
       style="fill:#f2e2b5;fill-opacity:1;stroke:none;stroke-width:6.88335848;stroke-linecap:round;stroke-miterlimit:2.9000001;stroke-dasharray:none;stroke-opacity:1"
       id="rect849"
       width="37.630997"
       height="8.867074"
       x="256.97339"
       y="255.2719" />
    <rect
       style="fill:#f2e2b5;fill-opacity:1;stroke:none;stroke-width:6.33840275;stroke-linecap:round;stroke-miterlimit:2.9000001;stroke-dasharray:none;stroke-opacity:1"
       id="rect849-4"
       width="33.59396"
       height="8.4221649"
       x="251.92708"
       y="267.70746" />
    <rect
       style="fill:#ebc7aa;fill-opacity:1;stroke:none;stroke-width:4.14658451;stroke-linecap:round;stroke-miterlimit:2.9000001;stroke-dasharray:none;stroke-opacity:1"
       id="rect849-4-7"
       width="33.59396"
       height="3.6045012"
       x="251.92708"
       y="264.10294" />
    <rect
       style="fill:#ebc7aa;fill-opacity:1;stroke:none;stroke-width:17.13682556;stroke-linecap:round;stroke-miterlimit:2.9000001;stroke-dasharray:none;stroke-opacity:1"
       id="rect849-4-7-9-3"
       width="241.57339"
       height="8.561244"
       x="10.353702"
       y="267.6055" />
    <rect
       style="fill:#9a7453;fill-opacity:1;stroke:none;stroke-width:10.89402676;stroke-linecap:round;stroke-miterlimit:2.9000001;stroke-dasharray:none;stroke-opacity:1"
       id="rect849-4-7-8"
       width="241.53815"
       height="3.4603212"
       x="10.367902"
       y="264.14288" />
    <rect
       style="fill:#343745;fill-opacity:1;stroke:none;stroke-width:7.46869516;stroke-linecap:round;stroke-miterlimit:2.9000001;stroke-dasharray:none;stroke-opacity:1"
       id="rect4768-0"
       width="41.971222"
       height="4.5014215"
       x="124.34145"
       y="250.79024"
       ry="1.6389995" />
    <g
       id="g4103"
       transform="matrix(1.3766717,0,0,1.3766717,-343.40759,142.22186)">
      <path
         sodipodi:nodetypes="ccsccccccccccccccccc"
         inkscape:original-d="m 399.30958,40.174021 c 0,0 4.69781,-1.170017 7.04634,-1.754627 2.34849,-0.584613 4.41755,0.03024 6.16113,0.930961 1.84363,0.952405 2.34139,2.571357 2.82665,5.24598 0.41122,2.452458 -0.56568,6.056222 -1.23772,8.066461 -0.7831,2.34349 -8.2494,19.381571 -8.2494,19.381571 l -3.17895,0.09838 -2.39612,9.949437 c 0,0 -30.0854,0.147847 -33.55726,0 0.78635,-2.295469 7.54617,-21.040921 8.31712,-23.669183 -1.78398,1.629955 -3.5468,3.062282 -6.59805,5.760199 -0.015,-4.44848 0.20686,-11.972935 0.11745,-16.966406 2.3174,-1.957178 5.31401,-3.97157 8.21128,-6.031012 2.89729,-2.059443 4.83701,-2.17003 6.47754,-2.421517 1.93674,-0.214459 5.02565,1.854096 5.02565,1.854096 0,0 -0.65754,1.156206 -0.72753,2.456751 -0.0329,1.152432 0.0679,1.997065 0.80502,2.551659 0.66302,0.44351 2.46297,1.12437 4.76788,-0.07188 1.41623,-0.825968 6.18897,-5.38087 6.18897,-5.38087 z"
         inkscape:path-effect="#path-effect4028"
         inkscape:connector-curvature="0"
         id="path4026"
         d="m 399.30958,40.174021 c 2.26619,-0.867244 4.63809,-1.457876 7.04634,-1.754627 1.05364,-0.129832 2.12104,-0.203528 3.17636,-0.08811 1.05532,0.115417 2.10324,0.427539 2.98477,1.019073 0.8514,0.571314 1.52371,1.389355 1.98757,2.303754 0.46385,0.914399 0.72484,1.923288 0.83908,2.942226 0.30537,2.723701 -0.4192,5.450774 -1.23772,8.066461 -2.10035,6.711939 -4.86817,13.214816 -8.2494,19.381571 l -3.17895,0.09838 -2.39612,9.949437 h -33.55726 l 8.31712,-23.669183 -6.59805,5.760199 0.11745,-16.966406 c 2.57002,-2.225503 5.31885,-4.244461 8.21128,-6.031012 1.98553,-1.226394 4.14429,-2.373318 6.47754,-2.421517 1.82753,-0.03775 3.66052,0.638485 5.02565,1.854096 -0.42659,0.748636 -0.67769,1.596544 -0.72753,2.456751 -0.0266,0.458948 0.004,0.924337 0.12955,1.366575 0.12556,0.442238 0.34914,0.861279 0.67547,1.185084 0.30242,0.300082 0.68706,0.51211 1.09597,0.631684 0.40892,0.119575 0.84159,0.148564 1.26585,0.109694 0.84852,-0.07774 1.6501,-0.420132 2.40606,-0.813258 2.44802,-1.273049 4.58798,-3.133588 6.18897,-5.38087 z"
         style="fill:#11265e;fill-opacity:1;stroke:none;stroke-width:0.26458332px;stroke-linecap:butt;stroke-linejoin:miter;stroke-opacity:1" />
      <path
         sodipodi:nodetypes="csccscsccccscsscccsccscsscccccscsccssccc"
         inkscape:original-d="m 422.00774,-14.590341 c -0.32735,-0.277448 -1.59596,-1.162948 -2.44385,-1.666258 -0.93523,-0.555155 -2.36027,-1.135789 -3.33251,-1.481119 -1.00929,-0.299045 -2.13501,-0.53717 -3.07332,-0.67576 -0.95682,-0.04602 -1.47778,-0.04963 -2.11061,0.157368 -0.64717,0.211692 -0.81744,0.440986 -0.99049,0.629476 -0.22859,0.244032 -0.59219,1.150688 -0.8609,1.925454 -0.25155,0.725298 -0.32219,1.295714 -0.62947,1.777342 -0.34896,0.500141 -0.16844,0.108178 -0.37029,0.407308 -0.0774,-0.192589 -0.2219,-0.419915 -0.33324,-0.629475 -0.11136,-0.209561 -1.70304,-3.061244 -2.55495,-4.591468 -0.8519,-1.530225 -3.03601,-3.949915 -4.55443,-5.924475 -1.51842,-1.974561 -4.32839,-2.842562 -6.22919,-3.388659 -2.44694,-0.592383 -3.33927,0.136467 -4.14377,0.246767 -1.22821,0.168391 -8.43955,2.32281 -12.32648,4.188145 -4.13344,1.983636 -10.31092,4.417173 -12.48247,6.190195 -1.71562,1.321561 -2.16637,1.416809 -2.38931,2.010036 -0.16221,0.476746 -0.9425,2.021223 -1.10155,2.5429 -0.15735,0.523919 -1.63338,3.1720187 -1.95098,6.6051713 -0.25427,2.7484999 -0.10077,1.4501166 -0.0312,2.0089463 0.0695,0.5588293 1.15651,2.9628756 1.69737,4.48173827 0.54084,1.51886273 2.39247,4.16543253 3.49827,6.25079183 1.1058,2.0853593 3.14653,4.8178633 4.83719,7.1879173 1.69068,2.370055 14.46587,7.109105 20.36539,8.294265 6.15538,1.23656 17.77737,0.01065 20.36539,-0.888671 2.27088,-0.789114 3.48705,-1.592467 4.81361,-2.666014 1.12294,-0.90692 2.55783,-2.757169 3.44361,-4.017534 0.72868,-1.286549 1.10176,-2.332664 1.62606,-3.393868 0.52429,-1.0612028 0.89828,-4.8512908 1.33619,-7.3997844 0.43788,-2.5484938 0.0496,-7.7020817 -0.037,-8.9237401 -0.0405,-0.9254345 -0.47802,-2.0121173 -0.7776,-2.5179015 -0.41373,-0.6985009 -2.43124,-2.0182887 -3.70279,-2.55493 -1.36415,-0.610697 -4.87211,-1.035596 -5.80139,-1.032291 -0.97819,0.0035 -1.60096,0.0521 -2.10726,-0.06546 -0.28085,-0.06846 -0.18357,-0.09901 -0.4073,-0.259196 0.14846,-0.262278 0.57005,-0.586615 0.85164,-0.821353 0.49465,-0.412349 1.32297,-0.807001 2.10449,-1.087607 1.3319,-0.478219 5.43721,-1.051204 6.72986,-1.02934 1.03342,-0.01517 2.04914,0.07379 3.07332,0.111084 z"
         inkscape:path-effect="#path-effect3923"
         inkscape:connector-curvature="0"
         id="path3921"
         d="m 422.00774,-14.590341 c -0.76928,-0.618305 -1.58725,-1.176013 -2.44385,-1.666258 -1.05694,-0.604906 -2.17351,-1.107274 -3.33251,-1.481119 -0.99979,-0.32249 -2.03047,-0.549116 -3.07332,-0.67576 -0.6987,-0.154879 -1.44261,-0.09941 -2.11061,0.157368 -0.36807,0.141488 -0.71672,0.345671 -0.99049,0.629476 -0.49443,0.512546 -0.70225,1.231196 -0.8609,1.925454 -0.14098,0.616958 -0.26532,1.259743 -0.62947,1.777342 -0.10585,0.15046 -0.23057,0.28764 -0.37029,0.407308 -0.11096,-0.20989 -0.22204,-0.419715 -0.33324,-0.629475 -0.8205,-1.547693 -1.64815,-3.092712 -2.55495,-4.591468 -1.29312,-2.137248 -2.75662,-4.190153 -4.55443,-5.924475 -1.73009,-1.669001 -3.84766,-3.061422 -6.22919,-3.388659 -1.37706,-0.189216 -2.77861,-0.0148 -4.14377,0.246767 -4.27061,0.818266 -8.32877,2.477593 -12.32648,4.188145 -4.27417,1.828844 -8.53384,3.736322 -12.48247,6.190195 -0.89019,0.55321 -1.78485,1.153813 -2.38931,2.010036 -0.53482,0.757581 -0.80618,1.663854 -1.10155,2.5429 -0.73276,2.180758 -1.66914,4.3219273 -1.95098,6.6051713 -0.0822,0.6662482 -0.10754,1.3419963 -0.0312,2.0089463 0.18283,1.5972479 0.93435,3.0666644 1.69737,4.48173827 1.13325,2.10169933 2.32031,4.17382243 3.49827,6.25079183 1.42825,2.5182864 2.86258,5.0707033 4.83719,7.1879173 2.55048,2.734672 5.90647,4.624154 9.43089,5.873884 3.52442,1.24973 7.23254,1.892328 10.9345,2.420381 6.8011,0.970118 13.93817,1.537613 20.36539,-0.888671 1.72311,-0.650474 3.37601,-1.514708 4.81361,-2.666014 1.38478,-1.109 2.55944,-2.47944 3.44361,-4.017534 0.66497,-1.066704 1.21141,-2.207232 1.62606,-3.393868 0.82908,-2.3726621 1.12302,-4.8954956 1.33619,-7.3997844 0.25287,-2.97073522 0.39884,-5.9742898 -0.037,-8.9237401 -0.1293,-0.8750147 -0.31721,-1.7626468 -0.7776,-2.5179015 -0.39782,-0.6526149 -0.98347,-1.1760778 -1.63051,-1.5829113 -0.64704,-0.4068335 -1.35676,-0.7033177 -2.07228,-0.9720187 -1.85522,-0.696696 -3.82902,-1.224673 -5.80139,-1.032291 -0.35424,0.03455 -0.70666,0.09223 -1.06238,0.104032 -0.35572,0.0118 -0.71987,-0.02442 -1.04488,-0.169492 -0.14748,-0.06583 -0.2852,-0.153475 -0.4073,-0.259196 0.25199,-0.304469 0.53825,-0.58055 0.85164,-0.821353 0.62868,-0.483068 1.35856,-0.81892 2.10449,-1.087607 2.14546,-0.772807 4.44951,-1.013477 6.72986,-1.02934 1.0254,-0.0071 2.05111,0.02994 3.07332,0.111084 z"
         style="fill:#48240f;fill-opacity:1;stroke:none;stroke-width:0.26458332px;stroke-linecap:butt;stroke-linejoin:miter;stroke-opacity:1" />
      <path
         sodipodi:nodetypes="csccccsscccscccccscsccc"
         inkscape:original-d="m 401.56447,-5.9341453 c -1.93459,-0.067438 -3.29378,0.00414 -4.92236,-0.2094616 -1.65956,-0.2176679 -4.35346,-1.4120142 -6.33622,-2.1731663 -1.96421,-0.7796661 -3.45584,-1.7370518 -4.94852,-2.7230038 -1.46651,-0.959768 -2.37365,-1.867965 -3.24665,-2.408811 -1.47523,-0.88122 -2.72276,-1.222124 -4.00598,-1.44005 -1.38793,-0.244107 -5.93682,-0.435775 -8.78779,0.446409 -2.80225,0.867108 -4.87189,1.923126 -6.92425,2.980751 -0.64363,0.331676 -0.78812,0.485728 -0.9257,0.64799 -0.16998,0.213175 -0.28979,0.701723 -0.3888,0.9118132 -0.099,0.2100898 -0.82799,1.9016397 -1.09231,3.9758779 -0.0811,0.8960155 -0.003,1.0496098 0.074,1.5551748 0.0779,0.5133457 0.24403,0.8498356 0.34251,1.2820931 0.10313,0.1406624 0.40449,-0.2054613 0.51841,-0.2962238 0.19721,-0.1601898 0.70686,-0.7732235 1.10158,-1.3931772 0.45023,-0.7310376 1.96584,-1.9226331 3.29549,-2.7030415 1.03341,-0.5952687 2.61689,-1.4320126 3.92496,-2.1476221 1.30805,-0.7156094 3.38214,-1.1789884 5.40607,-1.1848944 1.84448,-0.0054 2.86377,0.407043 4.29525,0.8886706 1.30187,0.4446003 3.48645,1.5953567 5.295,2.2216782 2.2461,0.7778518 6.64394,1.8942122 9.70608,2.0831868 2.38218,0.1302563 4.57351,-0.2097265 7.61918,-0.314193 z"
         inkscape:path-effect="#path-effect3927"
         inkscape:connector-curvature="0"
         id="path3925"
         d="m 401.56447,-5.9341453 c -1.6395,0.16669 -3.30295,0.095905 -4.92236,-0.2094616 -2.19945,-0.4147423 -4.29529,-1.2543752 -6.33622,-2.1731663 -1.71991,-0.7742726 -3.4227,-1.6141986 -4.94852,-2.7230038 -1.09085,-0.79271 -2.08737,-1.720037 -3.24665,-2.408811 -1.22606,-0.728456 -2.60546,-1.170932 -4.00598,-1.44005 -2.90743,-0.55868 -5.94546,-0.382097 -8.78779,0.446409 -2.4159,0.704206 -4.67026,1.86181 -6.92425,2.980751 -0.34047,0.169017 -0.69348,0.347064 -0.9257,0.64799 -0.20309,0.263171 -0.29278,0.593564 -0.3888,0.9118132 -0.39804,1.3192251 -0.98407,2.6021703 -1.09231,3.9758779 -0.0409,0.5186707 -0.0121,1.0420727 0.074,1.5551748 0.0733,0.4369043 0.18818,0.8668292 0.34251,1.2820931 0.18596,-0.072886 0.3612,-0.1730242 0.51841,-0.2962238 0.46793,-0.3667054 0.75197,-0.9123478 1.10158,-1.3931772 0.84114,-1.1568247 2.07781,-1.9526995 3.29549,-2.7030415 1.27074,-0.7830389 2.55773,-1.5487707 3.92496,-2.1476221 1.7034,-0.7460974 3.54697,-1.2295204 5.40607,-1.1848944 1.46786,0.03524 2.91155,0.397515 4.29525,0.8886706 1.80416,0.6404017 3.52198,1.4995322 5.295,2.2216782 3.08444,1.2562797 6.37566,2.1005901 9.70608,2.0831868 2.54263,-0.013287 5.07652,-0.3192783 7.61918,-0.314193 z"
         style="fill:#22100b;fill-opacity:1;stroke:none;stroke-width:0.26458332px;stroke-linecap:butt;stroke-linejoin:miter;stroke-opacity:1" />
      <path
         sodipodi:nodetypes="csssccccccccc"
         inkscape:original-d="m 401.59066,29.779095 c 2.30382,-1.186687 3.73565,-1.972698 5.13181,-3.037197 1.58042,-1.204988 4.95752,-4.189502 7.06933,-6.440951 2.13888,-2.28031 3.13158,-3.039538 4.60816,-4.765257 1.18191,-1.381323 1.39668,-2.234523 2.09463,-3.351388 -1.02386,0.993728 -1.5707,1.383986 -2.35646,1.937521 -0.82276,0.535021 -2.04197,0.663031 -3.16811,0.811665 -0.18353,-0.924859 -0.56701,-2.190886 -0.86404,-3.220476 -0.40172,-1.396147 -0.95976,-2.6272644 -1.7804,-3.8488603 -0.71593,-1.1218676 -1.21287,-1.3685063 -2.46118,-2.2255317 -0.0963,1.1610321 -0.20048,2.3125428 -0.41892,3.1942926 -0.55883,2.0861554 -1.91108,4.7911744 -3.14193,7.2264324 -0.78576,1.545045 -3.14166,9.146234 -4.71289,13.71975 z"
         inkscape:path-effect="#path-effect3935"
         inkscape:connector-curvature="0"
         id="path3933"
         d="m 401.59066,29.779095 c 1.81175,-0.826785 3.53525,-1.846813 5.13181,-3.037197 2.55766,-1.906968 4.76818,-4.23124 7.06933,-6.440951 1.59535,-1.531951 3.24719,-3.021762 4.60816,-4.765257 0.81208,-1.040333 1.51535,-2.165554 2.09463,-3.351388 -0.63756,0.801927 -1.44642,1.466983 -2.35646,1.937521 -0.97668,0.504996 -2.06893,0.784827 -3.16811,0.811665 -0.23958,-1.085711 -0.52798,-2.160649 -0.86404,-3.220476 -0.42915,-1.353428 -0.94566,-2.7003169 -1.7804,-3.8488603 -0.65494,-0.9011552 -1.49887,-1.6642847 -2.46118,-2.2255317 -0.0165,1.076128 -0.15739,2.1502972 -0.41892,3.1942926 -0.63969,2.5535764 -1.97818,4.8651534 -3.14193,7.2264324 -2.14343,4.34907 -3.73131,8.971569 -4.71289,13.71975 z"
         style="fill:#22100b;fill-opacity:1;stroke:none;stroke-width:0.26458332px;stroke-linecap:butt;stroke-linejoin:miter;stroke-opacity:1" />
      <path
         sodipodi:nodetypes="csssscccscscccccccccccccccsscsccc"
         inkscape:original-d="m 372.81925,-1.1581735 c 0,0 2.49154,-0.8583436 4.19951,-1.1018545 1.24784,-0.1779094 3.30808,-2.646e-4 4.96173,0 1.65367,2.646e-4 4.39425,1.0365185 6.59098,1.55517457 2.19673,0.51865612 4.76152,1.04837012 7.18344,1.11083901 2.18475,0.0563515 4.52736,-0.0253132 7.18341,-0.35176569 0.45669,1.71580021 0.54335,3.34459511 0.81462,5.01728961 0.27128,1.6726942 0.85156,3.8506439 0.96274,5.7763625 0.0326,1.925719 -0.29596,3.455679 -0.44434,5.183915 -0.14838,1.728237 -0.33321,3.813881 -0.33321,3.813881 0,0 1.5554,-2.147887 2.33272,-3.221433 0.77732,-1.073547 2.29125,-5.341011 2.29125,-5.341011 0,0 2.06262,0.03713 2.8186,0.527375 0.57272,0.333153 1.68622,1.715103 2.56818,2.991975 0.59398,1.276872 0.0752,3.84605 -0.65991,5.442188 -0.68279,1.491407 -1.48087,2.208663 -2.22168,3.640676 -0.74083,1.432012 -2.98593,1.934945 -4.29603,2.208972 -1.25771,0.221661 -2.12267,-0.44383 -2.8702,-1.175911 -0.74756,0.917431 -1.57237,1.995019 -1.57237,1.995019 0,0 -1.16745,4.669752 -1.68608,6.96575 -0.51866,2.295999 -1.33303,6.294753 -1.33303,6.294753 0,0 -5.41561,4.633903 -7.20742,5.733752 -1.76562,1.047486 -3.37713,-0.0676 -4.00568,-0.493749 -0.9166,-0.557061 -0.49644,-1.512786 -0.56178,-2.425877 -0.1177,-0.939276 0.49398,-1.580126 0.74054,-2.36979 0.11568,-1.99407 -1.03677,-6.015728 -1.03677,-6.015728 0,0 -4.82086,-0.909131 -7.03532,-1.612033 -2.2844,-0.725102 -4.27432,-2.189469 -6.29476,-3.480628 -2.02768,-1.295785 -3.78867,-4.599068 -3.96199,-5.165402 -0.14674,-0.443074 -0.0491,-2.900789 0.14812,-4.332272 0.19722,-1.431484 0.40758,-5.313778 0.55543,-8.127639 0.14784,-2.8138608 0.64209,-3.9992849 0.96271,-5.9985305 0.32065,-1.9992456 1.20659,-7.044298 1.20659,-7.044298 z"
         inkscape:path-effect="#path-effect3996"
         inkscape:connector-curvature="0"
         id="path3994"
         d="m 372.81925,-1.1581735 c 1.34891,-0.5338567 2.76226,-0.9046861 4.19951,-1.1018545 1.64361,-0.225477 3.31786,-0.2235125 4.96173,0 2.23823,0.3043251 4.39823,1.0128229 6.59098,1.55517457 2.35548,0.58260237 4.76077,0.97520473 7.18344,1.11083901 2.39798,0.13425227 4.81002,0.0161369 7.18341,-0.35176569 0.1965,1.68346741 0.4684,3.35813161 0.81462,5.01728961 0.39933,1.9136571 0.89959,3.8225056 0.96274,5.7763625 0.0561,1.735398 -0.23439,3.460351 -0.44434,5.183915 -0.15434,1.267018 -0.2655,2.539295 -0.33321,3.813881 0.87202,-1.001005 1.65379,-2.080606 2.33272,-3.221433 0.99359,-1.669558 1.76617,-3.470467 2.29125,-5.341011 0.96407,-0.09458 1.95395,0.09063 2.8186,0.527375 1.20405,0.608173 2.14952,1.709661 2.56818,2.991975 0.2158,1.832039 -0.0125,3.714819 -0.65991,5.442188 -0.50201,1.339439 -1.25495,2.586375 -2.22168,3.640676 -0.56038,0.611143 -1.19636,1.160672 -1.92196,1.561937 -0.72561,0.401265 -1.54491,0.650404 -2.37407,0.647035 -1.05987,-0.0043 -2.11197,-0.435352 -2.8702,-1.175911 l -1.57237,1.995019 c -0.59722,2.313209 -1.15933,4.635483 -1.68608,6.96575 -0.4729,2.092067 -0.9173,4.190578 -1.33303,6.294753 -1.63815,2.670658 -4.23683,4.737998 -7.20742,5.733752 -0.67839,0.2274 -1.38781,0.402032 -2.10228,0.363693 -0.35723,-0.01917 -0.71312,-0.09236 -1.04185,-0.233486 -0.32874,-0.141124 -0.62986,-0.351372 -0.86155,-0.623956 -0.27647,-0.325264 -0.44782,-0.73164 -0.52997,-1.150544 -0.0822,-0.418903 -0.0783,-0.850985 -0.0318,-1.275333 0.0907,-0.827856 0.34369,-1.637618 0.74054,-2.36979 l -1.03677,-6.015728 c -2.40593,-0.198372 -4.78305,-0.74305 -7.03532,-1.612033 -2.24365,-0.865657 -4.36067,-2.051418 -6.29476,-3.480628 -0.89267,-0.659647 -1.75225,-1.376335 -2.46284,-2.22901 -0.7106,-0.852675 -1.26997,-1.850356 -1.49915,-2.936392 -0.29986,-1.420982 -0.0239,-2.890221 0.14812,-4.332272 0.32175,-2.696929 0.27625,-5.425972 0.55543,-8.127639 0.20822,-2.0149508 0.59613,-4.0062961 0.96271,-5.9985305 0.43113,-2.3430209 0.83337,-4.6913583 1.20659,-7.044298 z"
         style="fill:#efc7bf;fill-opacity:1;stroke:none;stroke-width:0.26458332px;stroke-linecap:butt;stroke-linejoin:miter;stroke-opacity:1" />
      <path
         sodipodi:nodetypes="ccsccccccccccccc"
         inkscape:original-d="m 407.50794,14.38365 c 0.56176,-0.0053 0.99415,-0.04761 1.5186,0.02618 0.48743,0.0738 1.30395,0.228199 1.88516,0.523655 0.50778,0.258129 1.21816,1.058146 1.70188,1.754242 0.42817,0.566499 -0.10473,2.618273 -0.10473,2.618273 0,0 -0.33139,-1.117394 -0.49747,-1.675694 -0.1661,-0.558301 -0.77384,-1.087779 -1.2306,-1.492416 -0.48451,-0.423151 -2.46115,-0.104731 -2.46115,-0.104731 0,0 0.45831,0.848685 0.57599,1.44005 0.0899,0.489538 -0.2552,1.350135 -0.54983,1.858974 -0.26685,0.444039 -2.64445,0.785482 -2.64445,0.785482 0.004,0.0012 0.76052,-0.311231 1.04732,-0.497472 0.40437,-0.276643 0.92593,-1.179289 0.91639,-1.833336 -0.0373,-0.663304 -1.20441,-1.38714 -1.20441,-1.38714 l 1.0473,-2.01607 z"
         inkscape:path-effect="#path-effect4000"
         inkscape:connector-curvature="0"
         id="path3998"
         d="m 407.50794,14.38365 c 0.50552,-0.03909 1.01473,-0.03031 1.5186,0.02618 0.65158,0.07305 1.29988,0.22813 1.88516,0.523655 0.74246,0.374892 1.37758,0.988326 1.70188,1.754242 0.35183,0.830941 0.31234,1.818088 -0.10473,2.618273 -0.0781,-0.579744 -0.24662,-1.147223 -0.49747,-1.675694 -0.28027,-0.590443 -0.67708,-1.14487 -1.2306,-1.492416 -0.36377,-0.228401 -0.78756,-0.360238 -1.2167,-0.3785 -0.42913,-0.01826 -0.8626,0.0771 -1.24445,0.273769 0.3253,0.41112 0.52804,0.917995 0.57599,1.44005 0.0606,0.659775 -0.13271,1.344207 -0.54983,1.858974 -0.30765,0.379671 -0.73206,0.663387 -1.20051,0.802528 -0.46844,0.139142 -0.97891,0.133116 -1.44394,-0.01705 0.37744,-0.09431 0.73574,-0.264506 1.04732,-0.497472 0.28622,-0.21401 0.53454,-0.48311 0.70208,-0.79879 0.16754,-0.315681 0.25173,-0.679124 0.21431,-1.034546 -0.0341,-0.324238 -0.17006,-0.637016 -0.38381,-0.883198 -0.21375,-0.246182 -0.50436,-0.424649 -0.8206,-0.503942 l 1.0473,-2.01607 z"
         style="fill:#af7564;fill-opacity:1;stroke:none;stroke-width:0.26458332px;stroke-linecap:butt;stroke-linejoin:miter;stroke-opacity:1" />
      <path
         sodipodi:nodetypes="cccccccccccc"
         inkscape:original-d="m 402.32869,26.913517 c -1.12953,0.951619 -2.28401,1.9035 -3.4264,2.855645 -1.1424,0.952148 -3.1101,2.122672 -4.70255,3.036294 -1.59247,0.913622 -2.91879,1.264858 -4.3693,1.629231 -1.46906,0.438429 -2.59197,0.167942 -2.59197,0.167942 0,0 0.37055,1.96134 0.55542,2.942407 0.18489,0.981067 0.48135,3.073321 0.48135,3.073321 0,0 1.43203,-0.247119 2.14763,-0.37028 0.71561,-0.12316 2.46263,-0.932135 3.4436,-1.592201 1.05503,-0.771153 2.22195,-1.92572 3.33253,-2.888184 1.11057,-0.962461 4.39166,-5.988597 4.39166,-5.988597 0,0 0.49229,-1.910649 0.73803,-2.865578"
         inkscape:path-effect="#path-effect4004"
         inkscape:connector-curvature="0"
         id="path4002"
         d="m 402.32869,26.913517 c -1.09592,1.005575 -2.23978,1.958897 -3.4264,2.855645 -1.49023,1.12619 -3.05049,2.16464 -4.70255,3.036294 -1.38003,0.728129 -2.8355,1.342672 -4.3693,1.629231 -0.85312,0.159388 -1.72541,0.215907 -2.59197,0.167942 0.20014,0.977892 0.38531,1.958847 0.55542,2.942407 0.17673,1.021803 0.3372,2.046416 0.48135,3.073321 0.72583,-0.05142 1.44649,-0.175666 2.14763,-0.37028 1.22353,-0.339612 2.3837,-0.892929 3.4436,-1.592201 1.22979,-0.811357 2.32288,-1.8152 3.33253,-2.888184 1.70061,-1.807294 3.1791,-3.8234 4.39166,-5.988597 l 0.73803,-2.865578"
         style="fill:#af7564;fill-opacity:1;stroke:none;stroke-width:0.26458332px;stroke-linecap:butt;stroke-linejoin:miter;stroke-opacity:1" />
      <path
         sodipodi:nodetypes="csccsccccc"
         inkscape:original-d="m 381.53469,15.169132 c -0.0606,-0.212584 -0.2461,-0.289131 -0.39275,-0.261827 -0.15973,0.02974 -0.31392,0.26157 -0.47127,0.392741 -0.15738,0.131178 -1.30069,1.868222 -1.93755,3.011013 -0.0721,0.34669 0.0343,0.479899 0.15266,0.599299 0.14624,0.147574 0.34619,0.225593 0.52816,0.264731 0.27451,0.06691 1.06423,0.05528 1.38766,0 0.25865,-0.04602 0.33192,-0.227181 0.49749,-0.340375 0.10075,-0.46496 0.2357,-3.155019 0.23564,-3.665582 z"
         inkscape:path-effect="#path-effect4008"
         inkscape:connector-curvature="0"
         id="path4006"
         d="m 381.53469,15.169132 c -0.0237,-0.08215 -0.0773,-0.155334 -0.14847,-0.202768 -0.0712,-0.04744 -0.15932,-0.06875 -0.24428,-0.05906 -0.10508,0.01198 -0.20078,0.06945 -0.27708,0.142687 -0.0763,0.07324 -0.13562,0.161993 -0.19419,0.250054 -0.66099,0.993818 -1.30694,1.997642 -1.93755,3.011013 -0.0285,0.103975 -0.0295,0.215357 -0.003,0.319832 0.0266,0.104475 0.0808,0.2018 0.15556,0.279467 0.13832,0.143676 0.33565,0.212619 0.52816,0.264731 0.22728,0.06152 0.46019,0.106556 0.69555,0.113449 0.23536,0.0069 0.4738,-0.02524 0.69211,-0.113449 0.18775,-0.07586 0.35876,-0.192863 0.49749,-0.340375 l 0.23564,-3.665582 z"
         style="fill:#ffffff;fill-opacity:1;stroke:none;stroke-width:0.26458332px;stroke-linecap:butt;stroke-linejoin:miter;stroke-opacity:1" />
      <path
         sodipodi:nodetypes="cccccsccscc"
         inkscape:original-d="m 379.1201,22.57648 c 0.47492,0.136034 1.4721,0.246589 1.94395,0.231425 0.50888,0.01261 1.44173,-0.05376 2.26798,-0.203654 0.23709,-0.0642 0.30888,-0.274889 0.22217,-0.444336 -0.0681,-0.187961 -0.5243,-0.546426 -0.94422,-0.916442 -0.41992,-0.370015 -1.12601,-0.645168 -1.51816,-0.786844 -0.44464,-0.160642 -0.99948,-0.30883 -1.44409,-0.286972 -0.37979,0.03112 -0.64465,0.07379 -1.03677,0.222168 -0.31808,0.102095 -0.36077,0.505784 -0.31474,0.833129 0.0391,0.277802 0.82388,1.351521 0.82388,1.351521 z"
         inkscape:path-effect="#path-effect4012"
         inkscape:connector-curvature="0"
         id="path4010"
         d="m 379.1201,22.57648 c 0.63857,0.139206 1.29055,0.216824 1.94395,0.231425 0.76043,0.01699 1.52274,-0.05146 2.26798,-0.203654 l 0.22217,-0.444336 c -0.27349,-0.344465 -0.59174,-0.653353 -0.94422,-0.916442 -0.45874,-0.342405 -0.97485,-0.606567 -1.51816,-0.786844 -0.46694,-0.154936 -0.95365,-0.248213 -1.44409,-0.286972 -0.18105,-0.01431 -0.36416,-0.02115 -0.54346,0.0077 -0.1793,0.0289 -0.35592,0.09564 -0.49331,0.214418 -0.11609,0.100367 -0.20032,0.234891 -0.2509,0.37978 -0.0506,0.144889 -0.0684,0.299954 -0.0638,0.453349 0.008,0.275834 0.0894,0.549156 0.23309,0.784785 0.14364,0.235629 0.3494,0.43301 0.59079,0.566736 z"
         style="fill:#af7564;fill-opacity:1;stroke:none;stroke-width:0.26458332px;stroke-linecap:butt;stroke-linejoin:miter;stroke-opacity:1" />
      <path
         sodipodi:nodetypes="ccccccccc"
         inkscape:original-d="m 387.34724,28.522321 c -0.27573,-0.07074 -0.528,-0.115311 -0.78547,-0.130913 -0.19134,-0.02316 -0.69286,0.143574 -0.96522,0.22943 -0.26643,0.08754 -1.26032,0.346592 -1.26032,0.346592 0,0 0.40175,0.174286 0.60222,0.261826 0.20045,0.08754 0.70825,0.113871 1.0342,0.03927 0.33523,-0.0931 0.53266,-0.244637 0.79857,-0.366559 0.26593,-0.121923 0.57602,-0.379651 0.57602,-0.379651 z"
         inkscape:path-effect="#path-effect4016"
         inkscape:connector-curvature="0"
         id="path4014"
         d="m 387.34724,28.522321 c -0.2477,-0.101423 -0.51827,-0.146519 -0.78547,-0.130913 -0.33108,0.01934 -0.64902,0.129414 -0.96522,0.22943 -0.41552,0.131431 -0.83603,0.247072 -1.26032,0.346592 0.18825,0.112899 0.39126,0.20116 0.60222,0.261826 0.33532,0.09643 0.69526,0.122076 1.0342,0.03927 0.28569,-0.0698 0.54752,-0.21337 0.79857,-0.366559 0.19634,-0.119806 0.3885,-0.246459 0.57602,-0.379651 z"
         style="fill:#af7564;fill-opacity:1;stroke:none;stroke-width:0.26458332px;stroke-linecap:butt;stroke-linejoin:miter;stroke-opacity:1" />
      <path
         sodipodi:nodetypes="cccsccccscc"
         inkscape:original-d="m 388.74803,27.697567 c -0.33629,-0.392476 -0.69793,-0.602469 -1.04731,-0.811666 -0.42792,-0.24847 -0.92922,-0.340639 -1.28294,-0.418923 -0.47156,-0.07828 -1.24342,-0.126817 -2.003,-0.01309 -0.71299,0.10675 -0.94668,0.100103 -1.6495,0.235644 -0.70284,0.135543 -1.98989,0.56293 -1.98989,0.56293 0,0 1.36176,0.02592 1.72805,0.06546 0.36632,0.03954 1.34431,-0.09627 2.18626,-0.144011 0.90742,-0.07391 1.5926,-0.0067 2.435,0.05237 0.75029,0.05263 1.62333,0.471289 1.62333,0.471289 z"
         inkscape:path-effect="#path-effect4020"
         inkscape:connector-curvature="0"
         id="path4018"
         d="m 388.74803,27.697567 c -0.29764,-0.329439 -0.65403,-0.605641 -1.04731,-0.811666 -0.40022,-0.209657 -0.83702,-0.346202 -1.28294,-0.418923 -0.66083,-0.10777 -1.33644,-0.07636 -2.003,-0.01309 -0.55317,0.05251 -1.1046,0.126804 -1.6495,0.235644 -0.67667,0.135162 -1.3427,0.323577 -1.98989,0.56293 0.57388,0.05811 1.15142,0.07999 1.72805,0.06546 0.73018,-0.01839 1.45749,-0.09503 2.18626,-0.144011 0.81176,-0.05456 1.63136,-0.07449 2.435,0.05237 0.55804,0.08809 1.10488,0.246849 1.62333,0.471289 z"
         style="fill:#af7564;fill-opacity:1;stroke:none;stroke-width:0.26458332px;stroke-linecap:butt;stroke-linejoin:miter;stroke-opacity:1" />
      <path
         sodipodi:nodetypes="ccssscsccccscssccssc"
         inkscape:original-d="m 372.81924,-1.1581735 c -0.28887,1.67185812 -0.86744,5.0163681 -0.86744,5.0163681 0,0 2.75818,-0.8730221 4.13687,-1.3091364 1.37869,-0.4361141 4.14027,-0.8788025 6.23149,-0.7854817 2.02136,0.090203 3.66586,0.3837487 5.49839,0.5760199 1.83253,0.1922713 3.91022,0.4884798 5.86491,0.7331164 1.95471,0.2446367 2.93275,0.069556 4.3987,0.1047309 1.46597,0.035175 3.45612,-0.6283855 3.45612,-0.6283855 0,0 0.69296,2.8786069 1.02981,4.3553352 0.39236,1.4952422 0.34216,2.3018671 0.76277,3.4809686 0.42064,1.179102 0.25524,2.301698 0.28989,3.471457 0.0346,5.831326 -0.12727,2.080075 -0.14497,3.092739 -0.0177,1.012663 -0.24413,2.687828 -0.36658,4.03214 0.82892,-1.13603 1.15231,-2.374166 1.72807,-3.560851 0.57576,-1.186686 1.10606,-6.463966 0.68076,-9.6352434 -0.4541,-3.3860347 -0.92486,-5.6208233 -1.62334,-8.58793429 -0.75084,-1.18668571 -4.10169,0.0870112 -6.3362,-0.26182731 -2.23454,-0.3488384 -6.94691,-1.1173943 -10.52548,-1.6756945 -3.57857,-0.5583002 -8.77394,-0.8808296 -11.67748,-0.2618272 -1.72798,0.3683868 -1.95241,0.8796365 -2.53629,1.8435062"
         inkscape:path-effect="#path-effect4024"
         inkscape:connector-curvature="0"
         id="path4022"
         d="m 372.81924,-1.1581735 -0.86744,5.0163681 c 1.34873,-0.5251889 2.73155,-0.9627915 4.13687,-1.3091364 2.03831,-0.5023458 4.13237,-0.8129538 6.23149,-0.7854817 1.84414,0.024135 3.67366,0.3080818 5.49839,0.5760199 1.94954,0.2862649 3.90253,0.5550457 5.86491,0.7331164 1.46236,0.1326974 2.93448,0.2149124 4.3987,0.1047309 1.16976,-0.088024 2.33024,-0.2990187 3.45612,-0.6283855 0.33305,1.4541688 0.67633,2.9059951 1.02981,4.3553352 0.28153,1.1543308 0.56983,2.3085736 0.76277,3.4809686 0.18876,1.146982 0.28563,2.309054 0.28989,3.471457 0.004,1.03233 -0.0653,2.063479 -0.14497,3.092739 -0.10413,1.345608 -0.22633,2.689816 -0.36658,4.03214 0.73008,-1.103578 1.31287,-2.304466 1.72807,-3.560851 1.01794,-3.080217 1.00855,-6.407786 0.68076,-9.6352434 -0.29473,-2.9019706 -0.83849,-5.7786075 -1.62334,-8.58793429 -2.1146,0.0106486 -4.22969,-0.0767521 -6.3362,-0.26182731 -3.54165,-0.3111648 -7.05624,-0.8982157 -10.52548,-1.6756945 -1.93762,-0.4342314 -3.87098,-0.929405 -5.84922,-1.1010295 -1.97825,-0.1716245 -4.02998,-0.00288 -5.82826,0.8392023 -0.95228,0.4459261 -1.81823,1.0753431 -2.53629,1.8435062"
         style="fill:#af7564;fill-opacity:1;stroke:none;stroke-width:0.26458332px;stroke-linecap:butt;stroke-linejoin:miter;stroke-opacity:1" />
      <path
         sodipodi:nodetypes="ccccccscscccccsccscc"
         inkscape:original-d="m 409.24847,-11.763124 c 0.15674,1.660967 0.21667,1.9239493 0.20677,2.6899502 -0.0229,0.9230974 -0.2305,1.8848035 -0.4574,2.7228713 -0.30548,0.8904332 -1.60468,2.5748802 -2.06048,3.2016032 -0.75116,0.9833919 -2.81307,2.60724608 -3.99904,3.20291919 0.10466,1.41349861 0.21622,1.40679811 0.44438,2.72155541 0.20944,1.1481317 0.50015,2.6040358 0.79611,3.9619926 0.29596,1.3579564 0.46312,2.6410637 0.53691,3.6657681 0.1108,1.302415 -0.0923,2.227585 -0.24069,3.665769 -0.1276,1.23685 -0.40704,3.912358 -0.53691,5.776363 0.49962,-1.968389 0.68529,-2.653936 0.9072,-3.628741 0.29594,-1.234001 0.59887,-2.271313 0.88866,-3.351031 0.34534,-1.209315 0.36438,-1.83932 0.42583,-2.795611 0.0429,-1.1784592 -0.12317,-2.4441106 -0.42583,-3.6287409 -0.28414,-1.3142282 -0.30213,-2.0244601 -0.0741,-2.7215555 0.25968,-0.7937353 0.75317,-1.3641281 1.37002,-2.0550522 0.61688,-0.6909241 1.35181,-2.19725721 2.01806,-3.4806288 0.66622,-1.2833716 0.998,-2.7992848 1.2034,-4.27673 0.20992,-1.5100316 -0.11232,-4.0850106 -1.00289,-5.6707016 z"
         inkscape:path-effect="#path-effect3931"
         inkscape:connector-curvature="0"
         id="path3929"
         d="m 409.24847,-11.763124 c 0.17633,0.884049 0.24592,1.7893379 0.20677,2.6899502 -0.0401,0.9217944 -0.19408,1.8385797 -0.4574,2.7228713 -0.53545,1.1550634 -1.23098,2.2357853 -2.06048,3.2016032 -1.11917,1.3030937 -2.48296,2.39538211 -3.99904,3.20291919 0.1303,0.90997644 0.27846,1.81739461 0.44438,2.72155541 0.24314,1.3249694 0.52432,2.6426023 0.79611,3.9619926 0.24947,1.2110438 0.49183,2.4301187 0.53691,3.6657681 0.0447,1.224945 -0.10513,2.447528 -0.24069,3.665769 -0.21387,1.921998 -0.39288,3.847874 -0.53691,5.776363 0.27958,-1.215134 0.58205,-2.425001 0.9072,-3.628741 0.30137,-1.115695 0.62231,-2.226462 0.88866,-3.351031 0.21763,-0.918882 0.39928,-1.851681 0.42583,-2.795611 0.0343,-1.2200412 -0.19075,-2.4310692 -0.42583,-3.6287409 -0.0884,-0.4504234 -0.17856,-0.9019864 -0.21081,-1.3598702 -0.0322,-0.4578837 -0.005,-0.92511 0.13671,-1.3616853 0.25587,-0.7879192 0.85498,-1.4061935 1.37002,-2.0550522 0.83619,-1.05345413 1.48311,-2.2466046 2.01806,-3.4806288 0.59137,-1.3641901 1.05315,-2.7974862 1.2034,-4.27673 0.19647,-1.9342527 -0.15492,-3.9211616 -1.00289,-5.6707016 z"
         style="fill:#22100b;fill-opacity:1;stroke:none;stroke-width:0.26458332px;stroke-linecap:butt;stroke-linejoin:miter;stroke-opacity:1" />
      <ellipse
         ry="2.9252095"
         rx="2.9066954"
         cy="10.681244"
         cx="388.81216"
         id="path3937-5"
         style="fill:#d4d5d3;fill-opacity:0.65178573;stroke:none;stroke-width:0.331774" />
      <ellipse
         ry="2.6845276"
         rx="2.2957339"
         cy="10.273938"
         cx="370.42776"
         id="path3937"
         style="fill:#d4d5d3;fill-opacity:0.62053573;stroke:none;stroke-width:0.28246123" />
      <path
         id="path3870"
         transform="scale(0.26458333)"
         d="m 1490.4414,23.835938 c -0.9071,-0.01247 -1.8144,-0.008 -2.7226,0.01953 -7.05,0.213624 -14.0362,1.728851 -20.6426,4.199219 -4.8316,1.806675 -9.4866,4.132512 -13.6797,7.136718 -0.8924,0.639323 -1.7988,1.351958 -2.2481,2.353516 -0.3575,0.793085 -0.388,1.690379 -0.3457,2.558594 0.056,1.149241 0.2331,2.291259 0.4844,3.414062 0.1145,0.512103 0.245,1.031106 0.2109,1.554688 -0.018,0.261792 -0.08,0.522246 -0.1992,0.755859 -0.1194,0.233624 -0.2994,0.438306 -0.5273,0.568359 -0.2388,0.136252 -0.5202,0.186176 -0.7949,0.181641 -0.2749,-0.0044 -0.5465,-0.06032 -0.8145,-0.121094 -1.3371,-0.303046 -2.6391,-0.747515 -3.9863,-1.001953 -2.2731,-0.429328 -4.6373,-0.301503 -6.8848,0.246094 -0.6842,0.166715 -1.3615,0.37345 -2.0625,0.441406 -0.7009,0.06795 -1.4421,-0.01426 -2.041,-0.384766 -0.2995,-0.185313 -0.5601,-0.44589 -0.6992,-0.769531 -0.093,-0.217281 -0.1272,-0.454997 -0.1348,-0.691406 0,-0.236402 0.018,-0.473293 0.037,-0.708984 0.097,-1.184795 0.1074,-2.375067 0.1641,-3.5625 0.033,-0.689367 0.078,-1.403513 -0.1719,-2.046875 -0.1551,-0.399459 -0.4179,-0.749525 -0.7187,-1.054688 -0.3009,-0.305163 -0.6407,-0.568424 -0.9786,-0.832031 -1.7343,-1.353315 -3.4397,-2.748483 -5.2636,-3.978516 -4.612,-3.110294 -9.9521,-5.120567 -15.4629,-5.878906 -5.9551,-0.819479 -12.0651,-0.185207 -17.8438,1.470703 -3.633,1.041084 -7.142,2.477999 -10.5722,4.064453 -0.5464,0.252671 -1.0931,0.51154 -1.5938,0.845703 -0.3858,0.257539 -0.743,0.558194 -1.0605,0.896485 -0.042,1.193552 0.081,2.394289 0.3633,3.554687 0.2582,1.060736 0.6483,2.082404 1.0078,3.113282 v 0 c 0.1718,0.492569 0.3377,0.989259 0.4961,1.486328 0.2172,0.682374 0.4308,1.374347 0.8027,1.986328 0.3719,0.611985 0.9146,1.142484 1.5899,1.380859 0.6148,0.217028 1.3029,0.184298 1.9004,0.445313 0.5673,0.247857 0.9949,0.736945 1.3203,1.263672 0.8594,1.391284 1.1025,3.061245 1.5117,4.644531 0.7469,2.890072 2.0962,5.604834 3.7988,8.05664 2.9049,4.182989 6.9556,7.679991 11.7715,9.335938 3.1376,1.078824 6.5423,1.354255 9.8203,0.841797 3.278,-0.512459 6.4248,-1.807908 9.1426,-3.710938 3.2355,-2.265539 5.8565,-5.389891 7.5567,-8.955078 0.3793,-0.795704 0.715,-1.614367 1.1328,-2.390625 0.4178,-0.776254 0.9263,-1.516532 1.5976,-2.087891 0.98,-0.83405 2.2431,-1.256114 3.4981,-1.541015 3.4483,-0.782842 7.0903,-0.669634 10.4961,0.28125 1.5699,0.438327 3.1484,1.091314 4.2324,2.308594 0.7222,0.811045 1.1771,1.818551 1.6445,2.798828 1.2716,2.666744 2.7324,5.275009 4.6895,7.488281 3.2165,3.637731 7.6555,6.046904 12.3144,7.416016 7.5071,2.206114 15.7632,1.793501 23,-1.181641 6.3088,-2.593606 11.8475,-7.148217 15.336,-13.009766 2.2675,-3.810141 3.6597,-8.135246 4.0625,-12.550781 0.023,-0.254169 0.041,-0.508792 0.1054,-0.755859 0.064,-0.247049 0.1757,-0.488895 0.3574,-0.667969 0.1653,-0.162746 0.3818,-0.267237 0.6055,-0.328125 0.2238,-0.06085 0.4558,-0.0797 0.6875,-0.0918 0.89,-0.04585 1.7831,0.02016 2.6738,-0.0078 0.8656,-0.02729 1.754,-0.153099 2.5039,-0.585938 0.5615,-0.323958 1.0187,-0.804282 1.4004,-1.328125 0.9448,-1.296446 1.4597,-2.853162 1.8536,-4.408203 0.4862,-1.919344 0.8103,-3.910642 0.5957,-5.878906 -0.059,-0.5417 -0.1679,-1.099661 -0.4903,-1.539063 -0.2477,-0.337736 -0.6069,-0.581161 -0.9902,-0.75 -0.3833,-0.168839 -0.7931,-0.268967 -1.2012,-0.363281 -3.8428,-0.888139 -7.7595,-1.408115 -11.664,-1.964844 -6.2975,-0.897908 -12.6188,-1.893203 -18.9688,-1.980468 z m -1.2168,5.392578 c 1.5289,-0.0055 3.0578,0.04811 4.582,0.15625 5.1322,0.364097 10.2206,1.351928 15.1153,2.9375 1.5241,6.551253 0.6121,13.641084 -2.5196,19.59375 -2.5278,4.804777 -6.4974,8.873347 -11.3359,11.335937 -4.5047,2.292687 -9.6395,3.160769 -14.6934,3.078125 -5.5108,-0.09012 -11.1866,-1.371326 -15.5351,-4.757812 -3.3534,-2.611524 -5.7308,-6.344383 -7.1367,-10.355469 -1.2079,-3.446077 -1.7337,-7.130905 -1.5391,-10.777344 2.3181,-1.777073 4.7759,-3.369386 7.3457,-4.757812 3.8241,-2.06606 7.8951,-3.678651 12.1055,-4.757813 4.4408,-1.138215 9.0248,-1.678867 13.6113,-1.695312 z m -84.9316,1.800781 c 0.6862,0.0016 1.372,0.02817 2.0566,0.07617 4.2965,0.301213 8.5054,1.50459 12.4199,3.300781 3.7623,1.726306 7.2708,4.002646 10.3809,6.734375 0.1348,2.811708 -0.052,5.638875 -0.5566,8.408203 -0.7147,3.921506 -2.1599,7.868493 -5.0411,10.623047 -1.6213,1.550113 -3.6425,2.660598 -5.7929,3.298828 -2.1505,0.638158 -4.4272,0.813094 -6.6621,0.621094 -4.8468,-0.416383 -9.5407,-2.616079 -12.875,-6.158203 -2.9892,-3.175438 -4.8199,-7.283268 -6.0176,-11.476563 -1.1303,-3.95687 -1.7444,-8.059406 -1.8203,-12.173828 4.2984,-2.145623 9.1048,-3.265223 13.9082,-3.253906 z"
         style="fill:#0d0b0f;fill-opacity:1;stroke:none;stroke-width:0.99999994px;stroke-linecap:butt;stroke-linejoin:miter;stroke-opacity:1"
         inkscape:connector-curvature="0" />
      <path
         sodipodi:nodetypes="ccccsccccccccccsc"
         inkscape:original-d="m 375.38953,5.0344812 c 0.46876,0.031121 1.1543,0.2651026 1.85139,0.4443356 0.6971,0.1792329 1.31785,0.4193856 1.72181,0.6294754 0.26048,0.1406623 0.65749,0.3160159 0.9257,0.3332517 0.29132,0.00798 0.45757,-0.1717681 0.59244,-0.3702799 0.18641,-0.2743595 -0.0201,-0.8765929 -0.22212,-1.3144926 -0.25444,-0.4902652 -0.59704,-0.7655093 -1.27746,-1.2589509 -0.60193,-0.4148936 -1.62548,-0.5308172 -2.38835,-0.5739336 -0.84143,-0.056208 -2.64687,-0.047956 -3.35104,0.09257 -0.84815,0.1536175 -1.64131,0.4718421 -2.11058,0.7961015 -0.47856,0.3566585 -0.55276,0.5353251 -0.74058,0.9442131 -0.12238,0.2910656 -0.0491,0.3993288 0.0926,0.5369055 0.18795,0.1838615 0.54026,0.1324189 0.85164,0.018513 0.22809,-0.081501 0.60199,-0.2255182 0.90719,-0.3517656 0.25894,-0.1031053 0.8951,-0.099006 1.40707,-0.074056 0.51195,0.02495 1.27155,0.1169911 1.74032,0.1481129 z"
         inkscape:path-effect="#path-effect3915"
         inkscape:connector-curvature="0"
         id="path3913"
         d="m 375.38953,5.0344812 c 0.62121,0.1303567 1.23868,0.2785499 1.85139,0.4443356 0.59124,0.1599774 1.18293,0.3383211 1.72181,0.6294754 0.14643,0.079116 0.28882,0.1664923 0.44146,0.232852 0.15263,0.06636 0.31817,0.1115011 0.48424,0.1003997 0.24203,-0.01618 0.4722,-0.1596036 0.59244,-0.3702799 0.11603,-0.2033022 0.12828,-0.4539616 0.0743,-0.6817357 -0.054,-0.227774 -0.16908,-0.436339 -0.29642,-0.6327569 -0.32832,-0.5064165 -0.75394,-0.9586522 -1.27746,-1.2589509 -0.71647,-0.4109783 -1.56457,-0.5138328 -2.38835,-0.5739336 -1.11732,-0.081517 -2.24729,-0.099235 -3.35104,0.09257 -0.74685,0.129785 -1.4896,0.3613416 -2.11058,0.7961015 -0.16748,0.1172565 -0.32594,0.2494475 -0.45709,0.4062861 -0.13115,0.1568385 -0.23457,0.3394169 -0.28349,0.537927 -0.0226,0.091902 -0.0335,0.1876848 -0.021,0.2815078 0.0125,0.093823 0.0495,0.1858011 0.11361,0.2553977 0.0514,0.055798 0.11892,0.095729 0.1912,0.1188556 0.0723,0.023127 0.14923,0.029856 0.22495,0.024798 0.15143,-0.010116 0.29567,-0.066122 0.43549,-0.1251406 0.29912,-0.1262569 0.59297,-0.2700108 0.90719,-0.3517656 0.4565,-0.1187745 0.93619,-0.101795 1.40707,-0.074056 0.58126,0.034241 1.16163,0.083635 1.74032,0.1481129 z"
         style="fill:#48240f;fill-opacity:1;stroke:none;stroke-width:0.26458332px;stroke-linecap:butt;stroke-linejoin:miter;stroke-opacity:1" />
      <path
         inkscape:original-d="m 402.16073,6.8673654 c 0.40088,0.1915758 -1.22166,-1.1975021 -1.83287,-1.7958565 -0.61124,-0.5983541 -1.91286,-1.0740755 -2.86967,-1.6107163 -0.95681,-0.5366409 -2.86324,-0.7161387 -4.29525,-1.0738111 -1.432,-0.3576725 -2.43123,0.024421 -3.64725,0.037028 -1.21603,0.012607 -2.29547,0.4934417 -3.44361,0.7405594 -1.14813,0.2471176 -0.72794,0.8020079 -1.0923,1.2034088 -0.36439,0.401401 0.062,0.9130919 0.0926,1.3700347 0.0306,0.4569428 0.49398,0.4440711 0.74057,0.6665034 0.24659,0.2224326 0.64209,-0.1360336 0.96271,-0.2036537 0.32065,-0.06762 1.7159,-0.5063136 2.57344,-0.7590732 0.85757,-0.2527599 2.33305,-0.3458591 3.49917,-0.5183918 1.1661,-0.1725324 2.28365,0.061449 3.42509,0.09257 1.14141,0.031121 1.74056,0.370015 2.61045,0.5554194 0.8699,0.1854044 1.38264,0.481099 2.07357,0.7220455 0.69093,0.2409463 0.80253,0.3823576 1.2034,0.5739334 z"
         inkscape:path-effect="#path-effect3919"
         inkscape:connector-curvature="0"
         id="path3917"
         d="m 402.16073,6.8673654 c -0.5334,-0.6714722 -1.15066,-1.276263 -1.83287,-1.7958565 -0.8751,-0.6665041 -1.85313,-1.1903917 -2.86967,-1.6107163 -1.36922,-0.5661504 -2.8189,-0.948586 -4.29525,-1.0738111 -1.21255,-0.1028492 -2.43233,-0.032414 -3.64725,0.037028 -1.18358,0.067651 -2.41656,0.1484268 -3.44361,0.7405594 -0.47959,0.2765025 -0.91174,0.6800921 -1.0923,1.2034088 -0.15311,0.4437702 -0.1093,0.946231 0.0926,1.3700347 0.074,0.1554343 0.16938,0.3022995 0.29354,0.421579 0.12416,0.1192796 0.27841,0.2101475 0.44703,0.2449244 0.16321,0.03366 0.33363,0.01408 0.49444,-0.029613 0.16081,-0.043693 0.31407,-0.1108614 0.46827,-0.1740406 0.82865,-0.3395128 1.69845,-0.5684805 2.57344,-0.7590732 1.15313,-0.2511786 2.32177,-0.4375301 3.49917,-0.5183918 1.14133,-0.078385 2.29092,-0.057259 3.42509,0.09257 0.88276,0.1166173 1.75427,0.3108501 2.61045,0.5554194 0.70419,0.2011508 1.39912,0.4366376 2.07357,0.7220455 0.40942,0.173254 0.81109,0.3648199 1.2034,0.5739334 z"
         style="fill:#48240f;fill-opacity:1;stroke:none;stroke-width:0.26458332px;stroke-linecap:butt;stroke-linejoin:miter;stroke-opacity:1" />
      <ellipse
         transform="matrix(0.97098302,-0.23914843,0.14565319,0.98933571,0,0)"
         ry="0.61820847"
         rx="0.95526522"
         cy="104.15108"
         cx="369.47815"
         id="path3937-1"
         style="fill:#d4d5d3;fill-opacity:0.6964286;stroke:none;stroke-width:0.08743665" />
      <ellipse
         transform="matrix(0.97098302,-0.23914843,0.14565319,0.98933571,0,0)"
         ry="0.61820847"
         rx="0.95526522"
         cy="109.33675"
         cx="389.76956"
         id="path3937-1-2"
         style="fill:#d4d5d3;fill-opacity:0.6964286;stroke:none;stroke-width:0.08743665" />
      <path
         sodipodi:nodetypes="ccccccc"
         inkscape:original-d="m 375.04137,58.423002 c 1.39668,-3.40402 4.18922,-10.263634 4.18922,-10.263634 0,0 -4.34606,6.3185 -7.06932,9.163955 -2.19962,2.269431 -3.03694,2.827469 -4.55581,4.241601 -1.51884,1.414132 -0.62812,1.605608 -0.94257,2.408809 -0.31446,0.803204 1.78043,0.209468 1.78043,0.209468 l 6.59805,-5.760199"
         inkscape:path-effect="#path-effect4032"
         inkscape:connector-curvature="0"
         id="path4030"
         d="m 375.04137,58.423002 4.18922,-10.263634 c -1.93204,3.352722 -4.31684,6.444144 -7.06932,9.163955 -1.47599,1.458469 -3.05499,2.808704 -4.55581,4.241601 -0.33633,0.321106 -0.67469,0.654326 -0.88572,1.068682 -0.10552,0.207178 -0.17736,0.433354 -0.19307,0.665323 -0.0157,0.231969 0.0263,0.469906 0.13622,0.674804 0.16556,0.308726 0.48768,0.528078 0.83559,0.56901 0.34792,0.04093 0.71215,-0.09767 0.94484,-0.359542 l 6.59805,-5.760199"
         style="fill:#162240;fill-opacity:1;stroke:none;stroke-width:0.26458332px;stroke-linecap:butt;stroke-linejoin:miter;stroke-opacity:1" />
      <path
         sodipodi:nodetypes="cccccccccccc"
         inkscape:original-d="m 396.14464,49.782695 -6.02202,16.49512 c 0,0 0.69847,0.802672 3.56084,2.932464 4.01444,2.810543 8.99416,2.932467 8.99416,2.932467 l -1.66298,7.1217 c 0,0 -1.79761,1.553243 -6.85988,2.723004 -7.57581,1.431586 -27.43052,0.104732 -27.43052,0.104732 l 2.2951,-6.545683 c 0,0 6.98233,-2.443985 10.47309,-3.665582 3.49078,-1.221597 9.63525,-4.712891 9.63525,-4.712891 l -0.7855,-1.466233 z"
         inkscape:path-effect="#path-effect4036"
         inkscape:connector-curvature="0"
         id="path4034"
         d="m 396.14464,49.782695 -6.02202,16.49512 c 1.06197,1.117266 2.26067,2.104437 3.56084,2.932464 2.68813,1.711966 5.81355,2.730984 8.99416,2.932467 l -1.66298,7.1217 c -2.21072,1.085214 -4.50673,1.996608 -6.85988,2.723004 -8.86532,2.736644 -18.54456,2.7736 -27.43052,0.104732 l 2.2951,-6.545683 c 3.56028,-1.010497 7.05973,-2.235303 10.47309,-3.665582 3.29943,-1.38254 6.51842,-2.957042 9.63525,-4.712891 l -0.7855,-1.466233 z"
         style="fill:#162240;fill-opacity:1;stroke:none;stroke-width:0.26458332px;stroke-linecap:butt;stroke-linejoin:miter;stroke-opacity:1" />
      <path
         sodipodi:nodetypes="ccccssc"
         inkscape:original-d="m 368.44332,64.183201 c -4.45081,3.368578 -15.60463,10.507735 -22.83133,15.29071 -8.3518,2.513293 -19.42131,0.77602 -19.98804,0.320035 -0.43585,-0.416712 -0.16206,-1.075211 -0.33512,-1.494596 0.18041,-0.353929 4.82213,-1.31825 7.2223,-2.356314 2.48136,-1.073181 8.78824,-5.875367 13.18197,-8.812655 4.39372,-2.937287 15.16708,-1.965052 22.75022,-2.947183"
         inkscape:path-effect="#path-effect4044"
         inkscape:connector-curvature="0"
         id="path4042"
         d="m 368.44332,64.183201 -22.83133,15.29071 -19.98804,0.320035 -0.33512,-1.494596 c 2.50796,-0.41479 4.95227,-1.212258 7.2223,-2.356314 4.72486,-2.381246 8.58757,-6.188512 13.18197,-8.812655 6.81149,-3.890456 15.17223,-4.973551 22.75022,-2.947183"
         style="fill:#e6bcba;fill-opacity:1;stroke:none;stroke-width:0.26458332px;stroke-linecap:butt;stroke-linejoin:miter;stroke-opacity:1" />
      <path
         sodipodi:nodetypes="ccccscscccccsccccccccccscccccccccccccssscc"
         inkscape:original-d="m 402.67762,72.142746 c -1.74101,-0.331915 -5.4722,-1.396678 -7.31847,-2.042253 -1.58444,-0.488482 -4.45104,-2.932467 -4.45104,-2.932467 l -0.36658,1.256771 c 0,0 -5.26641,2.209128 -8.09441,3.378888 -2.828,1.16976 -9.08117,2.538143 -13.42778,3.742812 -1.01408,0.260458 -1.84526,0.09811 -2.49984,0.055 -0.51611,-0.03399 -2.71898,-1.312032 -4.5695,-2.097249 -1.8505,-0.785217 -4.22387,-0.768292 -6.33622,-1.152041 -2.11233,-0.383749 -3.17814,-0.417071 -4.90646,-0.643724 -1.13588,0.958243 -3.73383,3.261996 -3.73383,3.261996 0,0 0.43134,0.59533 0.78547,0.837848 0.33563,0.205492 1.14745,-0.194764 1.54666,-0.416293 0.52761,-0.292782 1.83222,-1.336635 1.83222,-1.336635 l 2.4337,0.548523 c 0,0 -1.5358,0.732851 -2.3041,1.099675 -0.76827,0.366821 -0.97721,0.5583 -1.46621,0.837845 -0.48903,0.279548 -2.72301,2.146985 -2.72301,2.146985 0,0 -0.0368,0.498523 -0.037,0.812981 -2.7e-4,0.314457 1.04969,0.129333 1.55563,0.129598 0.50593,2.64e-4 1.21631,-0.945507 1.72225,-1.241981 0.50594,-0.296471 2.60039,-1.644021 2.60039,-1.644021 0,0 -3.92517,3.143359 -4.12008,3.724937 0.14121,0.834128 -0.16704,0.204804 0.56703,0.408306 0.40977,0.113598 1.97274,-0.424996 2.31997,-0.81298 0.62495,-0.628667 1.47497,-1.148616 2.13799,-1.602186 0.66305,-0.453567 2.91822,-1.065822 2.91822,-1.065822 0,0 -1.8204,1.069795 -2.37922,1.558803 -0.55883,0.489009 -1.80267,1.959758 -1.80267,1.959758 0,0 0.38004,0.249916 0.60671,0.477095 0.22664,0.227182 0.91429,-0.207608 1.31547,-0.329528 0.40122,-0.121923 1.14917,-0.818025 1.44564,-1.097044 0.29649,-0.279017 2.76267,-0.948387 2.76267,-0.948387 0,0 0.81535,0.525509 1.26893,0.770146 0.45357,0.244636 1.25703,0.977223 1.88515,1.466231 0.62812,0.489011 1.13168,0.476319 1.78044,0.576021 0.63022,0.08119 2.34365,-0.214505 3.37624,-0.126965 1.03257,0.08754 2.33484,0.213976 3.64072,0.126965 1.30588,-0.08701 8.67549,-0.593741 12.62008,-0.733118 3.94459,-0.139374 6.79031,-0.907931 10.57782,-1.518597 3.78751,-0.610666 2.93273,-1.012661 5.18416,-1.83279 1.78018,-0.610666 3.11627,-3.264379 3.65289,-5.603102"
         inkscape:path-effect="#path-effect4040"
         inkscape:connector-curvature="0"
         id="path4038"
         d="m 402.67762,72.142746 c -2.53664,-0.227584 -5.03051,-0.923509 -7.31847,-2.042253 -1.60049,-0.782593 -3.10034,-1.770732 -4.45104,-2.932467 l -0.36658,1.256771 c -2.66318,1.20772 -5.36297,2.334705 -8.09441,3.378888 -4.35017,1.662992 -8.81198,3.123223 -13.42778,3.742812 -0.82934,0.111324 -1.67486,0.194998 -2.49984,0.055 -0.82984,-0.140823 -1.60553,-0.502583 -2.34432,-0.90589 -0.73879,-0.403307 -1.45453,-0.852873 -2.22518,-1.191359 -1.97512,-0.867517 -4.18765,-0.958811 -6.33622,-1.152041 -1.64333,-0.147792 -3.28063,-0.362604 -4.90646,-0.643724 l -3.73383,3.261996 c 0.0396,0.197694 0.1354,0.383807 0.27329,0.530897 0.1379,0.14709 0.31745,0.254696 0.51218,0.306951 0.26544,0.07123 0.55058,0.03913 0.81147,-0.04731 0.26088,-0.08644 0.50116,-0.224874 0.73519,-0.368979 0.64439,-0.396793 1.25763,-0.844162 1.83222,-1.336635 l 2.4337,0.548523 c -0.78207,0.336127 -1.5509,0.703064 -2.3041,1.099675 -0.4982,0.262334 -0.98978,0.537779 -1.46621,0.837845 -0.97987,0.617148 -1.89429,1.338135 -2.72301,2.146985 -0.0906,0.113262 -0.14412,0.255613 -0.15072,0.400473 -0.007,0.14486 0.0338,0.291489 0.11372,0.412508 0.0786,0.119098 0.19392,0.212199 0.32351,0.271967 0.12959,0.05977 0.27304,0.08695 0.41574,0.08759 0.28542,0.0013 0.56169,-0.101138 0.81638,-0.229957 0.63285,-0.320081 1.16517,-0.803115 1.72225,-1.241981 0.80699,-0.635744 1.67998,-1.187666 2.60039,-1.644021 l -4.12008,3.724937 c 0.14634,0.185061 0.34512,0.328192 0.56703,0.408306 0.20202,0.07293 0.42112,0.09372 0.63489,0.07291 0.21377,-0.02081 0.42242,-0.08247 0.61883,-0.16939 0.39282,-0.173833 0.73332,-0.445061 1.06625,-0.716502 0.69088,-0.563287 1.37388,-1.143108 2.13799,-1.602186 0.89311,-0.536581 1.88952,-0.900501 2.91822,-1.065822 -0.85509,0.415534 -1.65679,0.940786 -2.37922,1.558803 -0.67607,0.578357 -1.28268,1.237831 -1.80267,1.959758 0.12866,0.230654 0.35222,0.406455 0.60671,0.477095 0.22462,0.06235 0.46643,0.04411 0.68979,-0.02258 0.22337,-0.06669 0.4302,-0.17995 0.62568,-0.30695 0.50746,-0.329695 0.94696,-0.754213 1.44564,-1.097044 0.81228,-0.558423 1.77868,-0.890174 2.76267,-0.948387 0.44779,0.212498 0.87372,0.47101 1.26893,0.770146 0.63553,0.48104 1.19446,1.068432 1.88515,1.466231 0.54416,0.313405 1.15717,0.499469 1.78044,0.576021 1.11979,0.137535 2.24936,-0.07239 3.37624,-0.126965 1.21354,-0.05877 2.42745,0.06303 3.64072,0.126965 4.21313,0.221998 8.42841,-0.253966 12.62008,-0.733118 3.54019,-0.404681 7.08513,-0.812994 10.57782,-1.518597 1.80773,-0.365203 3.63877,-0.826286 5.18416,-1.83279 1.92318,-1.252562 3.28278,-3.338027 3.65289,-5.603102"
         style="fill:#efc7bf;fill-opacity:1;stroke:none;stroke-width:0.26458332px;stroke-linecap:butt;stroke-linejoin:miter;stroke-opacity:1" />
      <path
         sodipodi:nodetypes="cssccccccsc"
         inkscape:original-d="m 399.23553,8.5521381 c -1.7591,-0.4872703 -2.96198,-0.666768 -3.99902,-0.7775874 -1.35048,-0.1443147 -3.22818,0.1239407 -4.81364,0.4073078 -1.38264,0.2471175 -2.28311,0.7588086 -3.2029,1.2589509 -0.9383,0.5001419 -1.35127,0.8637216 -1.94399,1.2589506 -0.0188,0.821052 0.0311,1.844962 0.40733,2.851154 0.32063,0.932135 1.05555,1.919018 1.88841,2.740069 0.7218,0.654425 2.94399,1.153774 4.11011,1.258951 1.11058,0.03112 2.944,-0.339687 3.88792,-0.814615 0.9995,-0.567498 2.36725,-1.734952 2.99929,-2.999266 0.70327,-1.406798 0.88892,-3.51175 0.66649,-5.1839149 z"
         inkscape:path-effect="#path-effect3992-7"
         inkscape:connector-curvature="0"
         id="path3990-9"
         d="m 399.23553,8.5521381 c -1.29505,-0.4195157 -2.64113,-0.6812532 -3.99902,-0.7775874 -1.6132,-0.1144466 -3.24703,0.00577 -4.81364,0.4073078 -1.114,0.2855281 -2.19112,0.712306 -3.2029,1.2589509 -0.67993,0.3673544 -1.33065,0.7887666 -1.94399,1.2589506 -0.0515,0.964787 0.0877,1.93938 0.40733,2.851154 0.37198,1.061267 1.00115,2.049103 1.88841,2.740069 1.15055,0.896008 2.65202,1.235108 4.11011,1.258951 1.33718,0.02187 2.69605,-0.208008 3.88792,-0.814615 1.28019,-0.65156 2.33048,-1.728002 2.99929,-2.999266 0.82859,-1.574976 1.06974,-3.450562 0.66649,-5.1839149 z"
         style="fill:#aed5d3;fill-opacity:0.48214291;stroke:none;stroke-width:0.26458332px;stroke-linecap:butt;stroke-linejoin:miter;stroke-opacity:1"
         transform="translate(2.3743779e-4,-1.5486188e-4)" />
      <path
         sodipodi:nodetypes="cccccccc"
         inkscape:original-d="m 388.05418,11.870109 c 0,0 1.18298,-0.913227 1.88516,-1.230589 0.7392,-0.335875 2.44003,-0.574439 3.53467,-0.6807503 0.93728,-0.069283 3.95228,0.5252423 3.95228,0.5252423 0,0 -1.34379,0.174287 -2.01607,0.261828 -0.67228,0.08754 -1.67438,0.152596 -2.52123,0.266319 -0.84682,0.113723 -1.79152,0.271879 -2.63677,0.440614 -0.91005,0.177993 -2.19804,0.417336 -2.19804,0.417336 z"
         inkscape:path-effect="#path-effect3876"
         inkscape:connector-curvature="0"
         id="path3874"
         d="m 388.05418,11.870109 c 0.55435,-0.510936 1.19435,-0.928713 1.88516,-1.230589 1.10684,-0.483675 2.32687,-0.664401 3.53467,-0.6807503 1.3336,-0.018052 2.66969,0.1595083 3.95228,0.5252423 -0.66998,0.102157 -1.34222,0.189462 -2.01607,0.261828 -0.84029,0.09024 -1.68318,0.15727 -2.52123,0.266319 -0.88378,0.114999 -1.76077,0.276545 -2.63677,0.440614 -0.73302,0.13729 -1.46571,0.276403 -2.19804,0.417336 z"
         style="fill:#48240f;fill-opacity:1;stroke:none;stroke-width:0.26458332px;stroke-linecap:butt;stroke-linejoin:miter;stroke-opacity:1" />
      <path
         sodipodi:nodetypes="ccscssscsc"
         inkscape:original-d="m 378.12958,10.8849 c -0.64059,-0.640914 -1.93566,-1.3583422 -2.7468,-1.7818346 -0.92896,-0.4234927 -2.19485,-0.7483111 -3.28612,-0.8733338 -1.25229,-0.1434687 -3.14726,0.2037333 -4.22381,0.840798 0.0641,1.2247944 0.17718,2.1735404 0.48136,3.2214334 0.30274,1.042902 0.76936,2.243233 1.59221,3.036293 0.90629,0.873483 2.20711,1.509427 3.40656,1.62923 1.25237,0.125089 2.7471,-0.403443 3.29549,-1.036783 0.60077,-0.764254 1.11834,-1.713158 1.3337,-2.811167 0.15592,-0.794935 0.22064,-1.488743 0.14741,-2.224636 z"
         inkscape:path-effect="#path-effect3988-8"
         inkscape:connector-curvature="0"
         id="path3986-5"
         d="m 378.12958,10.8849 c -0.82287,-0.72277 -1.75137,-1.3250827 -2.7468,-1.7818346 -1.03573,-0.4752423 -2.14935,-0.7936378 -3.28612,-0.8733338 -1.44914,-0.1015954 -2.92405,0.1920025 -4.22381,0.840798 0.0201,1.0886074 0.18232,2.1745114 0.48136,3.2214334 0.3169,1.109476 0.80134,2.196125 1.59221,3.036293 0.8822,0.937187 2.12419,1.519062 3.40656,1.62923 0.59132,0.0508 1.19349,0.0044 1.76247,-0.164446 0.56897,-0.168865 1.10403,-0.462203 1.53302,-0.872337 0.76232,-0.728809 1.14461,-1.773602 1.3337,-2.811167 0.13353,-0.732718 0.18309,-1.480705 0.14741,-2.224636 z"
         style="fill:#aed5d3;fill-opacity:0.48214291;stroke:none;stroke-width:0.26458332px;stroke-linecap:butt;stroke-linejoin:miter;stroke-opacity:1"
         transform="translate(2.3743779e-4,-1.5486188e-4)" />
      <path
         sodipodi:nodetypes="cccccccc"
         inkscape:original-d="m 392.31298,13.082728 c 0,0 0.62547,-1.374216 1.16103,-1.710092 0.72994,-0.511758 1.99892,-1.124276 2.97321,-1.286129 0.86323,-0.1433391 0.87724,0.517846 0.87724,0.517846 0,0 -0.5554,0.300163 -1.02403,0.508045 -0.38531,0.124568 -0.86666,0.379482 -1.40803,0.641317 -0.63391,0.30812 -1.10977,0.501715 -1.55697,0.809305 -0.63234,0.381647 -1.02245,0.519708 -1.02245,0.519708 z"
         inkscape:path-effect="#path-effect3876-7"
         inkscape:connector-curvature="0"
         id="path3874-4"
         d="m 392.31298,13.082728 c 0.31165,-0.616608 0.70292,-1.192917 1.16103,-1.710092 0.37748,-0.426149 0.80718,-0.817016 1.31656,-1.071244 0.50937,-0.254228 1.10687,-0.3626357 1.65665,-0.214885 0.33197,0.08921 0.63874,0.270305 0.87724,0.517846 l -1.02403,0.508045 c -0.47616,0.19836 -0.94584,0.412285 -1.40803,0.641317 -0.52411,0.259715 -1.03838,0.53874 -1.55697,0.809305 -0.33896,0.176848 -0.67981,0.350097 -1.02245,0.519708 z"
         style="fill:#48240f;fill-opacity:1;stroke:none;stroke-width:0.26458332px;stroke-linecap:butt;stroke-linejoin:miter;stroke-opacity:1"
         transform="matrix(-1,0,0,1,770.00714,-0.3528419)" />
      <ellipse
         transform="rotate(-13.531246)"
         ry="1.7218004"
         rx="1.2219229"
         cy="99.614784"
         cx="361.79126"
         id="path3896"
         style="fill:#48240f;fill-opacity:1;stroke:none;stroke-width:0.26458332" />
      <ellipse
         transform="matrix(0.99999999,1.1541403e-4,-2.1765481e-4,0.99999998,0,0)"
         ry="2.1846499"
         rx="2.129108"
         cy="12.450359"
         cx="392.14737"
         id="path3896-4"
         style="fill:#48240f;fill-opacity:1;stroke:none;stroke-width:0.39340413" />
    </g>
    <rect
       style="fill:#62c1f5;fill-opacity:1;stroke:none;stroke-width:6.88335848;stroke-linecap:round;stroke-miterlimit:2.9000001;stroke-dasharray:none;stroke-opacity:1"
       id="rect1018"
       width="2.8036444"
       height="18.606005"
       x="129.69397"
       y="250.87019"
       ry="1.4018222"
       transform="rotate(-10.343261)" />
    <rect
       style="fill:#65542c;fill-opacity:1;stroke:none;stroke-width:6.88335848;stroke-linecap:round;stroke-miterlimit:2.9000001;stroke-dasharray:none;stroke-opacity:1"
       id="rect1018-9"
       width="2.8036444"
       height="18.606005"
       x="231.45741"
       y="180.47079"
       ry="1.4018222"
       transform="rotate(11.667141)" />
    <rect
       style="fill:#ef596e;fill-opacity:1;stroke:none;stroke-width:6.88335848;stroke-linecap:round;stroke-miterlimit:2.9000001;stroke-dasharray:none;stroke-opacity:1"
       id="rect1018-9-5"
       width="2.8036444"
       height="18.606005"
       x="213.24069"
       y="197.48108"
       ry="1.4018222"
       transform="rotate(8.2650446)" />
    <rect
       style="fill:#ebea00;fill-opacity:1;stroke:none;stroke-width:6.88335848;stroke-linecap:round;stroke-miterlimit:2.9000001;stroke-dasharray:none;stroke-opacity:1"
       id="rect926"
       width="8.9391651"
       height="12.327395"
       x="181.6118"
       y="242.87241" />
    <rect
       style="fill:#ebea00;fill-opacity:1;stroke:none;stroke-width:3.97073603;stroke-linecap:round;stroke-miterlimit:2.9000001;stroke-dasharray:none;stroke-opacity:1"
       id="rect926-8"
       width="9.0833454"
       height="4.037046"
       x="182.90941"
       y="236.42035" />
    <rect
       style="fill:#f4f2ed;fill-opacity:1;stroke:none;stroke-width:1.89539981;stroke-linecap:round;stroke-miterlimit:2.9000001;stroke-dasharray:none;stroke-opacity:1"
       id="rect926-8-1"
       width="2.1266565"
       height="3.9289074"
       x="187.5592"
       y="236.45641" />
    <rect
       style="fill:#eba200;fill-opacity:1;stroke:none;stroke-width:6.88335848;stroke-linecap:round;stroke-miterlimit:2.9000001;stroke-dasharray:none;stroke-opacity:1"
       id="rect926-9"
       width="8.9391651"
       height="12.327396"
       x="172.67265"
       y="242.87241" />
    <rect
       style="fill:#eba200;fill-opacity:1;stroke:none;stroke-width:4.51964426;stroke-linecap:round;stroke-miterlimit:2.9000001;stroke-dasharray:none;stroke-opacity:1"
       id="rect926-9-9"
       width="11.768297"
       height="4.037035"
       x="171.14111"
       y="236.42035" />
    <rect
       style="fill:#e3841b;fill-opacity:1;stroke:none;stroke-width:4.39746952;stroke-linecap:round;stroke-miterlimit:2.9000001;stroke-dasharray:none;stroke-opacity:1"
       id="rect926-9-6"
       width="17.88534"
       height="2.5146408"
       x="172.66562"
       y="240.35777" />
    <rect
       style="fill:#ef1629;fill-opacity:1;stroke:none;stroke-width:6.88335848;stroke-linecap:round;stroke-miterlimit:2.9000001;stroke-dasharray:none;stroke-opacity:1"
       id="rect4542-9-4"
       width="16.508598"
       height="16.508598"
       x="175.67828"
       y="189.33752"
       ry="0"
       transform="rotate(5.4189629)" />
    <rect
       style="fill:#6d85c3;fill-opacity:1;stroke:none;stroke-width:6.88335848;stroke-linecap:round;stroke-miterlimit:2.9000001;stroke-dasharray:none;stroke-opacity:1"
       id="rect4574"
       width="104.67474"
       height="71.945862"
       x="59.63155"
       y="165.05769"
       ry="4.902123" />
    <rect
       style="fill:#272036;fill-opacity:1;stroke:none;stroke-width:6.88335848;stroke-linecap:round;stroke-miterlimit:2.9000001;stroke-dasharray:none;stroke-opacity:1"
       id="rect4574-9"
       width="104.67474"
       height="71.945862"
       x="55.017757"
       y="164.98561"
       ry="4.902123" />
    <rect
       style="fill:#6d85c3;fill-opacity:1;stroke:none;stroke-width:7.01354027;stroke-linecap:round;stroke-miterlimit:2.9000001;stroke-dasharray:none;stroke-opacity:1"
       id="rect841"
       width="20.473572"
       height="54.635117"
       x="155.64786"
       y="211.87996"
       ry="2.993685"
       transform="matrix(1,0,-0.26870817,0.96322164,0,0)" />
    <rect
       style="fill:#ebc7aa;fill-opacity:1;stroke:none;stroke-width:17.94892883;stroke-linecap:round;stroke-miterlimit:2.9000001;stroke-dasharray:none;stroke-opacity:1"
       id="rect849-4-7-9"
       width="253.8075"
       height="8.9391851"
       x="3.1658762"
       y="255.19981" />
    <rect
       style="fill:#2e2b3d;fill-opacity:1;stroke:none;stroke-width:7.01354027;stroke-linecap:round;stroke-miterlimit:2.9000001;stroke-dasharray:none;stroke-opacity:1"
       id="rect841-5"
       width="20.473572"
       height="54.635117"
       x="153.46724"
       y="210.18025"
       ry="2.993685"
       transform="matrix(1,0,-0.26870816,0.96322164,0,0)" />
    <rect
       style="fill:#2e2b3d;fill-opacity:1;stroke:none;stroke-width:7.46869516;stroke-linecap:round;stroke-miterlimit:2.9000001;stroke-dasharray:none;stroke-opacity:1"
       id="rect4768"
       width="41.971222"
       height="4.5014215"
       x="74.737038"
       y="250.68239"
       ry="1.6389995" />
    <rect
       style="fill:#6d85c3;fill-opacity:1;stroke:none;stroke-width:5.20166826;stroke-linecap:round;stroke-miterlimit:2.9000001;stroke-dasharray:none;stroke-opacity:1"
       id="rect4768-2"
       width="20.358576"
       height="4.5014215"
       x="112.85042"
       y="250.69879"
       ry="1.6389995" />
  </g>
</svg>
