<?xml version="1.0"?>
<svg width="297" height="210" xmlns="http://www.w3.org/2000/svg" xmlns:svg="http://www.w3.org/2000/svg" version="1.1">

 <metadata id="metadata5">image/svg+xml</metadata>
 <g class="layer">
  <title>Layer 1</title>
  <g id="path402">
   <rect fill="#b7bdce" height="86.13" id="rect3053" stroke-width="0.39" transform="matrix(1 0 -0.267704 0.963501 0 0)" width="72.56" x="208.81" y="88.76"/>
   <path d="m414.89,18.89c3.36,-15.92 7.61,-31.64 11.26,-47.49c0.21,-0.93 0.43,-1.86 0.68,-2.78c0.57,-2.05 1.35,-4.03 2.1,-6.02c0.28,-0.75 0.56,-1.52 0.98,-2.2c0.42,-0.69 1,-1.3 1.74,-1.62c0.55,-0.25 1.17,-0.32 1.78,-0.27c1.24,0.11 2.4,0.71 3.35,1.52c1.13,0.97 1.99,2.23 2.6,3.59c0.62,1.35 1,2.81 1.28,4.27c0.49,2.64 0.65,5.35 0.31,8.01c-0.22,1.77 -0.66,3.51 -1.1,5.24c-3.16,12.55 -6.2,25.14 -9.11,37.75c0.05,0.39 -0.01,0.79 -0.16,1.15c-0.15,0.36 -0.39,0.68 -0.69,0.92c-0.3,0.25 -0.65,0.44 -1.02,0.56c-0.74,0.24 -1.53,0.23 -2.3,0.12c-0.77,-0.12 -1.52,-0.34 -2.27,-0.51c-0.76,-0.18 -1.53,-0.31 -2.31,-0.25c-1.36,0.11 -2.6,0.81 -3.95,1.02c-0.68,0.11 -1.39,0.08 -2.01,-0.19c-0.31,-0.14 -0.6,-0.34 -0.82,-0.6c-0.22,-0.26 -0.38,-0.57 -0.44,-0.91c-0.08,-0.43 0.01,-0.88 0.1,-1.31z" fill="#e1e8e7" id="path3866" stroke-width="0.26px" transform="matrix(1.37667 0 0 1.37667 -340.072 142.205)"/>
   <rect fill="#ffff00" height="16.51" id="rect4542" stroke-linecap="round" stroke-miterlimit="2.9" stroke-width="6.88" transform="rotate(3.3524112701416016 62.21812057495117,107.66159439086914)" width="16.51" x="53.96" y="99.41"/>
   <rect fill="#b2df00" height="16.51" id="rect4542-9" stroke-linecap="round" stroke-miterlimit="2.9" stroke-width="6.88" transform="rotate(-12.9412 3.44001e-8 -87)" width="16.51" x="-1.71" y="129.01"/>
   <path d="m123.13,149.97l-4.67,-31.07l-19.63,0l-7.21,31.07l31.51,0z" fill="#bcbdcd" id="path839" stroke-width="0.37px"/>
   <rect fill="#ff7f00" height="12.44" id="rect843" stroke-linecap="round" stroke-miterlimit="2.9" stroke-width="6.88" transform="matrix(1 0 0 1 0 0)" width="31.3" x="248.15" y="155.78"/>
   <rect fill="#e00000" height="12.44" id="rect845" stroke-linecap="round" stroke-miterlimit="2.9" stroke-width="6.88" width="28.7" x="219.46" y="155.78"/>
   <rect fill="#ffffff" height="7.09" id="rect847" stroke-linecap="round" stroke-miterlimit="2.9" stroke-width="6.88" transform="matrix(1 0 0 1 0 0)" width="22.74" x="219.46" y="158.38"/>
   <rect fill="#f2e2b5" height="8.87" id="rect849" stroke-linecap="round" stroke-miterlimit="2.9" stroke-width="6.88" width="37.63" x="256.97" y="168.27"/>
   <rect fill="#f2e2b5" height="8.42" id="rect849-4" stroke-linecap="round" stroke-miterlimit="2.9" stroke-width="6.34" width="33.59" x="251.93" y="180.71"/>
   <rect fill="#ebc7aa" height="3.6" id="rect849-4-7" stroke-linecap="round" stroke-miterlimit="2.9" stroke-width="4.15" width="33.59" x="251.93" y="177.1"/>
   <rect fill="#ebc7aa" height="8.56" id="rect849-4-7-9-3" stroke-linecap="round" stroke-miterlimit="2.9" stroke-width="17.14" width="241.57" x="10.35" y="180.61"/>
   <rect fill="#9a7453" height="3.46" id="rect849-4-7-8" stroke-linecap="round" stroke-miterlimit="2.9" stroke-width="10.89" width="241.54" x="10.37" y="177.14"/>
   <rect fill="#343745" height="4.5" id="rect4768-0" ry="1.64" stroke-linecap="round" stroke-miterlimit="2.9" stroke-width="7.47" width="41.97" x="124.34" y="163.79"/>
   <g id="g4103" transform="matrix(1.37667 0 0 1.37667 -343.408 142.222)">
    <path d="m399.31,-23.03c2.27,-0.86 4.64,-1.45 7.05,-1.75c1.05,-0.13 2.12,-0.2 3.17,-0.09c1.06,0.12 2.11,0.43 2.99,1.02c0.85,0.57 1.52,1.39 1.98,2.3c0.47,0.92 0.73,1.93 0.84,2.95c0.31,2.72 -0.42,5.45 -1.23,8.06c-2.1,6.71 -4.87,13.22 -8.25,19.38l-3.18,0.1l-2.4,9.95l-33.56,0l8.32,-23.67l-6.6,5.76l0.12,-16.96c2.57,-2.23 5.32,-4.25 8.21,-6.03c1.99,-1.23 4.15,-2.38 6.48,-2.43c1.83,-0.03 3.66,0.64 5.03,1.86c-0.43,0.75 -0.68,1.59 -0.73,2.46c-0.03,0.45 0,0.92 0.13,1.36c0.12,0.44 0.35,0.86 0.67,1.19c0.31,0.3 0.69,0.51 1.1,0.63c0.41,0.12 0.84,0.15 1.26,0.11c0.85,-0.08 1.65,-0.42 2.41,-0.82c2.45,-1.27 4.59,-3.13 6.19,-5.38z" fill="#7f7f7f" id="path4026" stroke-width="0.26px"/>
    <path d="m422.01,-77.79c-0.77,-0.62 -1.59,-1.18 -2.45,-1.67c-1.05,-0.6 -2.17,-1.1 -3.33,-1.48c-1,-0.32 -2.03,-0.55 -3.07,-0.67c-0.7,-0.16 -1.44,-0.1 -2.11,0.15c-0.37,0.15 -0.72,0.35 -0.99,0.63c-0.5,0.52 -0.71,1.23 -0.86,1.93c-0.14,0.62 -0.27,1.26 -0.63,1.78c-0.11,0.15 -0.23,0.28 -0.37,0.4c-0.11,-0.21 -0.23,-0.42 -0.34,-0.63c-0.82,-1.54 -1.65,-3.09 -2.55,-4.59c-1.3,-2.13 -2.76,-4.19 -4.56,-5.92c-1.73,-1.67 -3.84,-3.06 -6.23,-3.39c-1.37,-0.19 -2.77,-0.02 -4.14,0.25c-4.27,0.81 -8.33,2.47 -12.33,4.18c-4.27,1.83 -8.53,3.74 -12.48,6.19c-0.89,0.56 -1.78,1.16 -2.39,2.01c-0.53,0.76 -0.8,1.67 -1.1,2.55c-0.73,2.18 -1.67,4.32 -1.95,6.6c-0.08,0.67 -0.11,1.34 -0.03,2.01c0.18,1.6 0.93,3.07 1.7,4.48c1.13,2.1 2.32,4.18 3.49,6.25c1.43,2.52 2.87,5.07 4.84,7.19c2.55,2.74 5.91,4.63 9.43,5.88c3.53,1.25 7.23,1.89 10.94,2.42c6.8,0.97 13.94,1.53 20.36,-0.89c1.73,-0.65 3.38,-1.52 4.82,-2.67c1.38,-1.11 2.56,-2.48 3.44,-4.02c0.66,-1.06 1.21,-2.2 1.63,-3.39c0.82,-2.37 1.12,-4.9 1.33,-7.4c0.25,-2.97 0.4,-5.97 -0.04,-8.92c-0.12,-0.88 -0.31,-1.77 -0.77,-2.52c-0.4,-0.65 -0.99,-1.18 -1.63,-1.58c-0.65,-0.41 -1.36,-0.71 -2.08,-0.98c-1.85,-0.69 -3.82,-1.22 -5.8,-1.03c-0.35,0.04 -0.7,0.09 -1.06,0.11c-0.36,0.01 -0.72,-0.03 -1.04,-0.17c-0.15,-0.07 -0.29,-0.16 -0.41,-0.26c0.25,-0.31 0.54,-0.58 0.85,-0.82c0.63,-0.49 1.36,-0.82 2.1,-1.09c2.15,-0.77 4.45,-1.02 6.73,-1.03c1.03,-0.01 2.06,0.03 3.08,0.11z" fill="#000000" id="path3921" stroke-width="0.26px" transform="matrix(1 0 0 1 0 0)"/>
    <path d="m401.56,-69.13c-1.64,0.16 -3.3,0.09 -4.92,-0.21c-2.2,-0.42 -4.29,-1.26 -6.33,-2.18c-1.72,-0.77 -3.43,-1.61 -4.95,-2.72c-1.09,-0.79 -2.09,-1.72 -3.25,-2.41c-1.23,-0.73 -2.6,-1.17 -4.01,-1.44c-2.9,-0.56 -5.94,-0.38 -8.78,0.45c-2.42,0.7 -4.67,1.86 -6.93,2.98c-0.34,0.17 -0.69,0.35 -0.92,0.65c-0.21,0.26 -0.3,0.59 -0.39,0.91c-0.4,1.32 -0.99,2.6 -1.09,3.97c-0.05,0.52 -0.02,1.05 0.07,1.56c0.07,0.44 0.19,0.87 0.34,1.28c0.19,-0.07 0.36,-0.17 0.52,-0.29c0.47,-0.37 0.75,-0.92 1.1,-1.4c0.84,-1.15 2.08,-1.95 3.3,-2.7c1.27,-0.78 2.56,-1.55 3.92,-2.15c1.71,-0.74 3.55,-1.23 5.41,-1.18c1.47,0.03 2.91,0.39 4.29,0.89c1.81,0.64 3.53,1.49 5.3,2.22c3.08,1.25 6.37,2.1 9.71,2.08c2.54,-0.01 5.07,-0.32 7.61,-0.31z" fill="#3f3f3f" id="path3925" stroke-width="0.26px" transform="matrix(1 0 0 1 0 0)"/>
    <path d="m401.59,-33.42c1.81,-0.83 3.54,-1.85 5.13,-3.04c2.56,-1.91 4.77,-4.23 7.07,-6.44c1.6,-1.53 3.25,-3.02 4.61,-4.76c0.81,-1.04 1.52,-2.17 2.09,-3.36c-0.63,0.81 -1.44,1.47 -2.35,1.94c-0.98,0.51 -2.07,0.79 -3.17,0.81c-0.24,-1.08 -0.53,-2.16 -0.86,-3.22c-0.43,-1.35 -0.95,-2.7 -1.78,-3.85c-0.66,-0.9 -1.5,-1.66 -2.47,-2.22c-0.01,1.07 -0.15,2.15 -0.41,3.19c-0.64,2.56 -1.98,4.87 -3.15,7.23c-2.14,4.35 -3.73,8.97 -4.71,13.72z" fill="#3f3f3f" id="path3933" stroke-width="0.26px"/>
    <path d="m372.82,-64.36c1.35,-0.53 2.76,-0.9 4.2,-1.1c1.64,-0.23 3.32,-0.22 4.96,0c2.24,0.3 4.4,1.01 6.59,1.56c2.36,0.58 4.76,0.97 7.18,1.11c2.4,0.13 4.81,0.01 7.19,-0.36c0.19,1.69 0.47,3.36 0.81,5.02c0.4,1.92 0.9,3.82 0.97,5.78c0.05,1.73 -0.24,3.46 -0.45,5.18c-0.15,1.27 -0.26,2.54 -0.33,3.82c0.87,-1.01 1.65,-2.08 2.33,-3.23c0.99,-1.67 1.77,-3.47 2.29,-5.34c0.97,-0.09 1.96,0.09 2.82,0.53c1.2,0.61 2.15,1.71 2.57,2.99c0.21,1.83 -0.01,3.72 -0.66,5.44c-0.5,1.34 -1.26,2.59 -2.22,3.65c-0.56,0.61 -1.2,1.16 -1.92,1.56c-0.73,0.4 -1.55,0.65 -2.38,0.64c-1.06,0 -2.11,-0.43 -2.87,-1.17l-1.57,1.99c-0.6,2.32 -1.16,4.64 -1.69,6.97c-0.47,2.09 -0.91,4.19 -1.33,6.29c-1.64,2.67 -4.24,4.74 -7.21,5.74c-0.68,0.23 -1.39,0.4 -2.1,0.36c-0.36,-0.02 -0.71,-0.09 -1.04,-0.23c-0.33,-0.14 -0.63,-0.35 -0.86,-0.63c-0.28,-0.32 -0.45,-0.73 -0.53,-1.15c-0.09,-0.42 -0.08,-0.85 -0.04,-1.27c0.1,-0.83 0.35,-1.64 0.75,-2.37l-1.04,-6.02c-2.41,-0.2 -4.78,-0.74 -7.04,-1.61c-2.24,-0.87 -4.36,-2.05 -6.29,-3.48c-0.89,-0.66 -1.75,-1.38 -2.46,-2.23c-0.72,-0.85 -1.27,-1.85 -1.5,-2.94c-0.3,-1.42 -0.03,-2.89 0.14,-4.33c0.33,-2.69 0.28,-5.42 0.56,-8.13c0.21,-2.01 0.6,-4 0.96,-5.99c0.43,-2.35 0.84,-4.7 1.21,-7.05z" fill="#efc7bf" id="path3994" stroke-width="0.26px"/>
    <path d="m407.51,-48.82c0.5,-0.04 1.01,-0.03 1.52,0.03c0.65,0.07 1.3,0.23 1.88,0.52c0.74,0.38 1.38,0.99 1.7,1.76c0.36,0.83 0.32,1.82 -0.1,2.62c-0.08,-0.58 -0.25,-1.15 -0.5,-1.68c-0.28,-0.59 -0.68,-1.14 -1.23,-1.49c-0.36,-0.23 -0.79,-0.36 -1.22,-0.38c-0.43,-0.02 -0.86,0.08 -1.24,0.27c0.32,0.41 0.53,0.92 0.58,1.44c0.06,0.66 -0.14,1.35 -0.55,1.86c-0.31,0.38 -0.74,0.67 -1.2,0.8c-0.47,0.14 -0.98,0.14 -1.45,-0.01c0.38,-0.1 0.74,-0.27 1.05,-0.5c0.28,-0.21 0.53,-0.48 0.7,-0.8c0.17,-0.31 0.25,-0.68 0.22,-1.03c-0.04,-0.33 -0.18,-0.64 -0.39,-0.89c-0.21,-0.24 -0.5,-0.42 -0.82,-0.5l1.05,-2.02z" fill="#af7564" id="path3998" stroke-width="0.26px"/>
    <path d="m402.33,-36.29c-1.1,1.01 -2.24,1.96 -3.43,2.86c-1.49,1.13 -3.05,2.16 -4.7,3.04c-1.38,0.72 -2.84,1.34 -4.37,1.62c-0.85,0.16 -1.72,0.22 -2.59,0.17c0.2,0.98 0.38,1.96 0.55,2.95c0.18,1.02 0.34,2.04 0.49,3.07c0.72,-0.05 1.44,-0.18 2.14,-0.37c1.23,-0.34 2.39,-0.89 3.45,-1.59c1.23,-0.82 2.32,-1.82 3.33,-2.89c1.7,-1.81 3.18,-3.83 4.39,-5.99l0.74,-2.87" fill="#af7564" id="path4002" stroke-width="0.26px"/>
    <path d="m381.53,-48.03c-0.02,-0.08 -0.07,-0.16 -0.14,-0.2c-0.07,-0.05 -0.16,-0.07 -0.25,-0.06c-0.1,0.01 -0.2,0.07 -0.28,0.14c-0.07,0.07 -0.13,0.16 -0.19,0.25c-0.66,0.99 -1.31,2 -1.94,3.01c-0.03,0.11 -0.03,0.22 0,0.32c0.03,0.11 0.08,0.2 0.16,0.28c0.13,0.14 0.33,0.21 0.52,0.27c0.23,0.06 0.46,0.1 0.7,0.11c0.23,0.01 0.47,-0.03 0.69,-0.11c0.19,-0.08 0.36,-0.2 0.5,-0.35l0.23,-3.66z" fill="#ffffff" id="path4006" stroke-width="0.26px"/>
    <path d="m379.12,-40.62c0.64,0.14 1.29,0.21 1.94,0.23c0.76,0.01 1.53,-0.05 2.27,-0.21l0.22,-0.44c-0.27,-0.34 -0.59,-0.65 -0.94,-0.92c-0.46,-0.34 -0.97,-0.6 -1.52,-0.78c-0.47,-0.16 -0.95,-0.25 -1.44,-0.29c-0.18,-0.01 -0.37,-0.02 -0.55,0.01c-0.18,0.03 -0.35,0.09 -0.49,0.21c-0.12,0.1 -0.2,0.24 -0.25,0.38c-0.05,0.15 -0.07,0.3 -0.06,0.45c0,0.28 0.09,0.55 0.23,0.79c0.14,0.24 0.35,0.43 0.59,0.57z" fill="#af7564" id="path4010" stroke-width="0.26px"/>
    <path d="m387.35,-34.68c-0.25,-0.1 -0.52,-0.14 -0.79,-0.13c-0.33,0.02 -0.65,0.13 -0.96,0.23c-0.42,0.13 -0.84,0.25 -1.26,0.35c0.18,0.11 0.39,0.2 0.6,0.26c0.33,0.1 0.69,0.12 1.03,0.04c0.29,-0.07 0.55,-0.21 0.8,-0.37c0.2,-0.12 0.39,-0.24 0.58,-0.38z" fill="#af7564" id="path4014" stroke-width="0.26px"/>
    <path d="m388.75,-35.5c-0.3,-0.33 -0.66,-0.61 -1.05,-0.81c-0.4,-0.21 -0.84,-0.35 -1.28,-0.42c-0.66,-0.11 -1.34,-0.08 -2.01,-0.02c-0.55,0.06 -1.1,0.13 -1.64,0.24c-0.68,0.13 -1.35,0.32 -1.99,0.56c0.57,0.06 1.15,0.08 1.72,0.07c0.73,-0.02 1.46,-0.1 2.19,-0.15c0.81,-0.05 1.63,-0.07 2.43,0.06c0.56,0.08 1.11,0.24 1.63,0.47z" fill="#af7564" id="path4018" stroke-width="0.26px"/>
    <path d="m372.82,-64.36l-0.87,5.02c1.35,-0.53 2.73,-0.96 4.14,-1.31c2.04,-0.5 4.13,-0.81 6.23,-0.79c1.84,0.03 3.67,0.31 5.5,0.58c1.95,0.29 3.9,0.55 5.86,0.73c1.47,0.14 2.94,0.22 4.4,0.11c1.17,-0.09 2.33,-0.3 3.46,-0.63c0.33,1.45 0.67,2.91 1.03,4.35c0.28,1.16 0.57,2.31 0.76,3.49c0.19,1.14 0.29,2.3 0.29,3.47c0,1.03 -0.06,2.06 -0.14,3.09c-0.11,1.35 -0.23,2.69 -0.37,4.03c0.73,-1.1 1.31,-2.3 1.73,-3.56c1.02,-3.08 1.01,-6.41 0.68,-9.63c-0.3,-2.91 -0.84,-5.78 -1.63,-8.59c-2.11,0.01 -4.22,-0.08 -6.33,-0.26c-3.54,-0.32 -7.06,-0.9 -10.53,-1.68c-1.93,-0.43 -3.87,-0.93 -5.85,-1.1c-1.97,-0.17 -4.03,0 -5.82,0.84c-0.96,0.44 -1.82,1.07 -2.54,1.84" fill="#af7564" id="path4022" stroke-width="0.26px"/>
    <path d="m409.25,-74.96c0.17,0.88 0.24,1.79 0.21,2.69c-0.04,0.92 -0.2,1.84 -0.46,2.72c-0.54,1.15 -1.23,2.24 -2.06,3.2c-1.12,1.3 -2.49,2.4 -4,3.2c0.13,0.91 0.28,1.82 0.44,2.73c0.25,1.32 0.53,2.64 0.8,3.96c0.25,1.21 0.49,2.43 0.54,3.66c0.04,1.23 -0.11,2.45 -0.24,3.67c-0.22,1.92 -0.4,3.85 -0.54,5.78c0.28,-1.22 0.58,-2.43 0.91,-3.63c0.3,-1.12 0.62,-2.23 0.88,-3.35c0.22,-0.92 0.4,-1.86 0.43,-2.8c0.03,-1.22 -0.19,-2.43 -0.43,-3.63c-0.08,-0.45 -0.17,-0.9 -0.21,-1.36c-0.03,-0.46 0,-0.92 0.14,-1.36c0.26,-0.79 0.85,-1.41 1.37,-2.06c0.84,-1.05 1.48,-2.24 2.02,-3.48c0.59,-1.36 1.05,-2.79 1.2,-4.27c0.2,-1.94 -0.15,-3.92 -1,-5.67z" fill="#3f3f3f" id="path3929" stroke-width="0.26px" transform="matrix(1 0 0 1 0 0)"/>
    <ellipse cx="388.81" cy="-52.51" fill="#d4d5d3" fill-opacity="0.65" id="path3937-5" rx="2.91" ry="2.93" stroke-width="0.33"/>
    <ellipse cx="370.43" cy="-52.92" fill="#d4d5d3" fill-opacity="0.62" id="path3937" rx="2.3" ry="2.68" stroke-width="0.28"/>
    <path d="m1490.44,23.84c-0.91,-0.02 -1.81,-0.01 -2.72,0.02c-7.05,0.21 -14.04,1.72 -20.64,4.19c-4.84,1.81 -9.49,4.14 -13.68,7.14c-0.9,0.64 -1.8,1.35 -2.25,2.35c-0.36,0.8 -0.39,1.7 -0.35,2.56c0.06,1.15 0.24,2.29 0.49,3.42c0.11,0.51 0.24,1.03 0.21,1.55c-0.02,0.26 -0.08,0.52 -0.2,0.76c-0.12,0.23 -0.3,0.44 -0.53,0.57c-0.24,0.13 -0.52,0.18 -0.79,0.18c-0.28,-0.01 -0.55,-0.06 -0.82,-0.12c-1.33,-0.31 -2.64,-0.75 -3.98,-1c-2.28,-0.43 -4.64,-0.31 -6.89,0.24c-0.68,0.17 -1.36,0.37 -2.06,0.44c-0.7,0.07 -1.44,-0.01 -2.04,-0.38c-0.3,-0.19 -0.56,-0.45 -0.7,-0.77c-0.09,-0.22 -0.13,-0.46 -0.14,-0.69c0,-0.24 0.02,-0.48 0.04,-0.71c0.1,-1.19 0.11,-2.38 0.16,-3.56c0.04,-0.69 0.08,-1.41 -0.17,-2.05c-0.15,-0.4 -0.42,-0.75 -0.72,-1.06c-0.3,-0.3 -0.64,-0.56 -0.97,-0.83c-1.74,-1.35 -3.44,-2.75 -5.27,-3.98c-4.61,-3.11 -9.95,-5.12 -15.46,-5.88c-5.96,-0.82 -12.07,-0.18 -17.84,1.48c-3.64,1.04 -7.15,2.47 -10.58,4.06c-0.54,0.25 -1.09,0.51 -1.59,0.85c-0.39,0.25 -0.74,0.55 -1.06,0.89c-0.04,1.2 0.08,2.4 0.36,3.56c0.26,1.06 0.65,2.08 1.01,3.11l0,0c0.17,0.49 0.34,0.99 0.5,1.49c0.21,0.68 0.43,1.37 0.8,1.98c0.37,0.61 0.91,1.14 1.59,1.38c0.61,0.22 1.3,0.19 1.9,0.45c0.57,0.25 0.99,0.74 1.32,1.26c0.86,1.39 1.1,3.06 1.51,4.65c0.75,2.89 2.1,5.6 3.8,8.05c2.9,4.19 6.96,7.68 11.77,9.34c3.14,1.08 6.54,1.35 9.82,0.84c3.28,-0.51 6.43,-1.81 9.14,-3.71c3.24,-2.27 5.86,-5.39 7.56,-8.95c0.38,-0.8 0.72,-1.62 1.13,-2.4c0.42,-0.77 0.93,-1.51 1.6,-2.08c0.98,-0.84 2.24,-1.26 3.5,-1.54c3.45,-0.79 7.09,-0.67 10.5,0.28c1.57,0.44 3.14,1.09 4.23,2.31c0.72,0.81 1.17,1.81 1.64,2.79c1.27,2.67 2.73,5.28 4.69,7.49c3.22,3.64 7.66,6.05 12.32,7.42c7.5,2.2 15.76,1.79 23,-1.18c6.3,-2.6 11.84,-7.15 15.33,-13.01c2.27,-3.81 3.66,-8.14 4.06,-12.55c0.03,-0.26 0.05,-0.51 0.11,-0.76c0.06,-0.25 0.18,-0.49 0.36,-0.67c0.16,-0.16 0.38,-0.26 0.6,-0.33c0.23,-0.06 0.46,-0.08 0.69,-0.09c0.89,-0.04 1.78,0.02 2.67,-0.01c0.87,-0.02 1.76,-0.15 2.51,-0.58c0.56,-0.33 1.02,-0.81 1.4,-1.33c0.94,-1.3 1.46,-2.85 1.85,-4.41c0.49,-1.92 0.81,-3.91 0.6,-5.88c-0.06,-0.54 -0.17,-1.1 -0.49,-1.54c-0.25,-0.33 -0.61,-0.58 -0.99,-0.75c-0.39,-0.16 -0.8,-0.26 -1.2,-0.36c-3.85,-0.89 -7.76,-1.41 -11.67,-1.96c-6.3,-0.9 -12.62,-1.9 -18.97,-1.98zm-1.22,5.39c1.53,-0.01 3.06,0.05 4.59,0.15c5.13,0.37 10.22,1.36 15.11,2.94c1.53,6.55 0.61,13.64 -2.52,19.6c-2.53,4.8 -6.5,8.87 -11.33,11.33c-4.51,2.29 -9.64,3.16 -14.7,3.08c-5.51,-0.09 -11.18,-1.37 -15.53,-4.76c-3.36,-2.61 -5.73,-6.34 -7.14,-10.35c-1.21,-3.45 -1.73,-7.13 -1.54,-10.78c2.32,-1.78 4.78,-3.37 7.35,-4.76c3.82,-2.06 7.89,-3.68 12.1,-4.76c4.44,-1.13 9.03,-1.68 13.61,-1.69zm-84.93,1.8c0.69,0 1.38,0.03 2.06,0.08c4.3,0.3 8.51,1.5 12.42,3.3c3.76,1.72 7.27,4 10.38,6.73c0.14,2.81 -0.05,5.64 -0.56,8.41c-0.71,3.92 -2.16,7.87 -5.04,10.62c-1.62,1.55 -3.64,2.66 -5.79,3.3c-2.15,0.64 -4.43,0.81 -6.66,0.62c-4.85,-0.41 -9.54,-2.61 -12.88,-6.16c-2.99,-3.17 -4.82,-7.28 -6.01,-11.47c-1.14,-3.96 -1.75,-8.06 -1.83,-12.18c4.3,-2.14 9.11,-3.26 13.91,-3.25z" fill="#0d0b0f" id="path3870" stroke-width="1px" transform="translate(0 -63.1959) scale(0.264583 0.264583)"/>
    <path d="m375.39,-58.17c0.62,0.13 1.24,0.28 1.85,0.45c0.59,0.16 1.18,0.34 1.72,0.63c0.15,0.08 0.29,0.16 0.44,0.23c0.16,0.07 0.32,0.11 0.49,0.1c0.24,-0.01 0.47,-0.16 0.59,-0.37c0.12,-0.2 0.13,-0.45 0.08,-0.68c-0.06,-0.23 -0.17,-0.44 -0.3,-0.63c-0.33,-0.51 -0.76,-0.96 -1.28,-1.26c-0.72,-0.41 -1.56,-0.52 -2.39,-0.58c-1.11,-0.08 -2.24,-0.1 -3.35,0.1c-0.74,0.13 -1.49,0.36 -2.11,0.79c-0.17,0.12 -0.32,0.25 -0.46,0.41c-0.13,0.16 -0.23,0.34 -0.28,0.54c-0.02,0.09 -0.03,0.18 -0.02,0.28c0.01,0.09 0.05,0.18 0.11,0.25c0.05,0.06 0.12,0.1 0.19,0.12c0.08,0.03 0.15,0.03 0.23,0.03c0.15,-0.01 0.3,-0.07 0.43,-0.13c0.3,-0.12 0.6,-0.27 0.91,-0.35c0.46,-0.12 0.94,-0.1 1.41,-0.07c0.58,0.03 1.16,0.08 1.74,0.14z" fill="#000000" id="path3913" stroke-width="0.26px"/>
    <path d="m402.16,-56.33c-0.53,-0.67 -1.15,-1.28 -1.83,-1.8c-0.88,-0.66 -1.86,-1.19 -2.87,-1.61c-1.37,-0.57 -2.82,-0.95 -4.3,-1.07c-1.21,-0.11 -2.43,-0.04 -3.64,0.03c-1.19,0.07 -2.42,0.15 -3.45,0.74c-0.48,0.28 -0.91,0.68 -1.09,1.21c-0.15,0.44 -0.11,0.94 0.09,1.37c0.08,0.15 0.17,0.3 0.3,0.42c0.12,0.12 0.27,0.21 0.44,0.24c0.17,0.04 0.34,0.02 0.5,-0.03c0.16,-0.04 0.31,-0.11 0.47,-0.17c0.82,-0.34 1.69,-0.57 2.57,-0.76c1.15,-0.25 2.32,-0.44 3.5,-0.52c1.14,-0.07 2.29,-0.05 3.42,0.1c0.89,0.11 1.76,0.31 2.61,0.55c0.71,0.2 1.4,0.44 2.08,0.72c0.41,0.18 0.81,0.37 1.2,0.58z" fill="#000000" id="path3917" stroke-width="0.26px" transform="matrix(1 0 0 1 0 0)"/>
    <ellipse cx="378.72" cy="42.51" fill="#d4d5d3" fill-opacity="0.7" id="path3937-1" rx="0.96" ry="0.62" stroke-width="0.09" transform="matrix(0.970983 -0.239148 0.145653 0.989336 0 0)"/>
    <ellipse cx="399.02" cy="47.69" fill="#d4d5d3" fill-opacity="0.7" id="path3937-1-2" rx="0.96" ry="0.62" stroke-width="0.09" transform="matrix(0.970983 -0.239148 0.145653 0.989336 0 0)"/>
    <path d="m375.04,-4.78l4.19,-10.26c-1.93,3.35 -4.32,6.44 -7.07,9.16c-1.47,1.46 -3.05,2.81 -4.55,4.24c-0.34,0.33 -0.68,0.66 -0.89,1.07c-0.11,0.21 -0.18,0.44 -0.19,0.67c-0.02,0.23 0.02,0.47 0.13,0.67c0.17,0.31 0.49,0.53 0.84,0.57c0.35,0.04 0.71,-0.09 0.94,-0.36l6.6,-5.76" fill="#162240" id="path4030" stroke-width="0.26px"/>
    <path d="m396.14,-13.42l-6.02,16.5c1.06,1.12 2.26,2.1 3.56,2.93c2.69,1.71 5.82,2.73 9,2.93l-1.67,7.12c-2.21,1.09 -4.5,2 -6.86,2.73c-8.86,2.73 -18.54,2.77 -27.43,0.1l2.3,-6.54c3.56,-1.01 7.06,-2.24 10.47,-3.67c3.3,-1.38 6.52,-2.96 9.64,-4.71l-0.79,-1.47l7.8,-15.92z" fill="#162240" id="path4034" stroke-width="0.26px"/>
    <path d="m368.44,0.98l-22.83,15.29l-19.99,0.32l-0.33,-1.49c2.51,-0.42 4.95,-1.21 7.22,-2.36c4.73,-2.38 8.59,-6.19 13.18,-8.81c6.81,-3.89 15.18,-4.97 22.75,-2.95" fill="#e6bcba" id="path4042" stroke-width="0.26px"/>
    <path d="m402.68,8.94c-2.54,-0.22 -5.03,-0.92 -7.32,-2.04c-1.6,-0.78 -3.1,-1.77 -4.45,-2.93l-0.37,1.25c-2.66,1.21 -5.36,2.34 -8.09,3.38c-4.35,1.67 -8.81,3.13 -13.43,3.75c-0.83,0.11 -1.68,0.19 -2.5,0.05c-0.83,-0.14 -1.61,-0.5 -2.34,-0.9c-0.74,-0.41 -1.46,-0.86 -2.23,-1.2c-1.98,-0.86 -4.19,-0.95 -6.34,-1.15c-1.64,-0.15 -3.28,-0.36 -4.9,-0.64l-3.74,3.26c0.04,0.2 0.14,0.38 0.28,0.53c0.13,0.15 0.31,0.26 0.51,0.31c0.26,0.07 0.55,0.04 0.81,-0.05c0.26,-0.09 0.5,-0.22 0.74,-0.37c0.64,-0.39 1.25,-0.84 1.83,-1.33l2.43,0.54c-0.78,0.34 -1.55,0.71 -2.3,1.1c-0.5,0.27 -0.99,0.54 -1.47,0.84c-0.98,0.62 -1.89,1.34 -2.72,2.15c-0.09,0.11 -0.15,0.25 -0.15,0.4c-0.01,0.14 0.03,0.29 0.11,0.41c0.08,0.12 0.2,0.21 0.32,0.27c0.13,0.06 0.28,0.09 0.42,0.09c0.29,0 0.56,-0.1 0.82,-0.23c0.63,-0.32 1.16,-0.8 1.72,-1.24c0.81,-0.64 1.68,-1.19 2.6,-1.64l-4.12,3.72c0.15,0.19 0.34,0.33 0.57,0.41c0.2,0.07 0.42,0.09 0.63,0.07c0.22,-0.02 0.42,-0.08 0.62,-0.17c0.39,-0.17 0.73,-0.44 1.07,-0.71c0.69,-0.57 1.37,-1.15 2.13,-1.61c0.9,-0.53 1.89,-0.9 2.92,-1.06c-0.85,0.41 -1.65,0.94 -2.38,1.56c-0.67,0.57 -1.28,1.23 -1.8,1.96c0.13,0.23 0.35,0.4 0.61,0.47c0.22,0.07 0.46,0.05 0.69,-0.02c0.22,-0.07 0.43,-0.18 0.62,-0.31c0.51,-0.33 0.95,-0.75 1.45,-1.09c0.81,-0.56 1.78,-0.89 2.76,-0.95c0.45,0.21 0.87,0.47 1.27,0.77c0.64,0.48 1.19,1.07 1.89,1.46c0.54,0.32 1.15,0.5 1.78,0.58c1.12,0.14 2.25,-0.07 3.37,-0.13c1.22,-0.06 2.43,0.07 3.64,0.13c4.22,0.22 8.43,-0.25 12.62,-0.73c3.54,-0.41 7.09,-0.82 10.58,-1.52c1.81,-0.37 3.64,-0.83 5.18,-1.83c1.93,-1.26 3.29,-3.34 3.66,-5.61" fill="#efc7bf" id="path4038" stroke-width="0.26px"/>
    <path d="m399.24,-54.65c-1.3,-0.42 -2.65,-0.68 -4,-0.78c-1.62,-0.11 -3.25,0.01 -4.82,0.41c-1.11,0.29 -2.19,0.71 -3.2,1.26c-0.68,0.37 -1.33,0.79 -1.94,1.26c-0.06,0.96 0.08,1.94 0.4,2.85c0.38,1.06 1,2.05 1.89,2.74c1.15,0.9 2.65,1.24 4.11,1.26c1.34,0.02 2.7,-0.21 3.89,-0.81c1.28,-0.66 2.33,-1.73 3,-3c0.83,-1.58 1.07,-3.45 0.67,-5.19z" fill="#aed5d3" fill-opacity="0.48" id="path3990-9" stroke-width="0.26px" transform="translate(0.000237438 -0.000154862)"/>
    <path d="m388.05,-51.33c0.56,-0.51 1.2,-0.93 1.89,-1.23c1.11,-0.48 2.33,-0.66 3.53,-0.68c1.34,-0.02 2.67,0.16 3.96,0.52c-0.67,0.11 -1.35,0.19 -2.02,0.27c-0.84,0.09 -1.68,0.15 -2.52,0.26c-0.88,0.12 -1.76,0.28 -2.64,0.44c-0.73,0.14 -1.46,0.28 -2.2,0.42z" fill="#48240f" id="path3874" stroke-width="0.26px"/>
    <path d="m378.13,-52.32c-0.82,-0.72 -1.75,-1.32 -2.75,-1.78c-1.03,-0.47 -2.15,-0.79 -3.28,-0.87c-1.45,-0.1 -2.93,0.19 -4.23,0.84c0.02,1.09 0.19,2.18 0.48,3.22c0.32,1.11 0.81,2.2 1.6,3.04c0.88,0.94 2.12,1.52 3.4,1.63c0.59,0.05 1.2,0 1.77,-0.17c0.56,-0.17 1.1,-0.46 1.53,-0.87c0.76,-0.73 1.14,-1.77 1.33,-2.81c0.14,-0.73 0.19,-1.48 0.15,-2.23z" fill="#aed5d3" fill-opacity="0.48" id="path3986-5" stroke-width="0.26px" transform="translate(0.000237438 -0.000154862)"/>
    <path d="m392.31,-50.12c0.31,-0.61 0.71,-1.19 1.16,-1.71c0.38,-0.42 0.81,-0.81 1.32,-1.07c0.51,-0.25 1.11,-0.36 1.66,-0.21c0.33,0.09 0.64,0.27 0.87,0.51l-1.02,0.51c-0.48,0.2 -0.95,0.41 -1.41,0.64c-0.52,0.26 -1.04,0.54 -1.55,0.81c-0.34,0.18 -0.68,0.35 -1.03,0.52z" fill="#48240f" id="path3874-4" stroke-width="0.26px" transform="matrix(-1 0 0 1 770.007 -0.352842)"/>
    <ellipse cx="361.79" cy="36.42" fill="#48240f" id="path3896" rx="1.22" ry="1.72" stroke-width="0.26" transform="rotate(-13.5312 -1.40905e-7 -63.1959)"/>
    <ellipse cx="392.13" cy="-50.75" fill="#000000" id="path3896-4" rx="2.13" ry="2.18" stroke-width="0.39" transform="matrix(1 0 0 1 0 0) matrix(1 0.000115414 -0.000217655 1 0 0)"/>
   </g>
   <rect fill="#62c1f5" height="18.61" id="rect1018" ry="1.4" stroke-linecap="round" stroke-miterlimit="2.9" stroke-width="6.88" transform="rotate(-10.3433 2.62720e-7 -87)" width="2.8" x="129.69" y="163.87"/>
   <rect fill="#65542c" height="18.61" id="rect1018-9" ry="1.4" stroke-linecap="round" stroke-miterlimit="2.9" stroke-width="6.88" transform="rotate(11.6671 3.82990e-7 -87)" width="2.8" x="231.46" y="93.47"/>
   <rect fill="#ef596e" height="18.61" id="rect1018-9-5" ry="1.4" stroke-linecap="round" stroke-miterlimit="2.9" stroke-width="6.88" transform="rotate(8.26504 -2.75335e-7 -87)" width="2.8" x="213.24" y="110.48"/>
   <rect fill="#ebea00" height="12.33" id="rect926" stroke-linecap="round" stroke-miterlimit="2.9" stroke-width="6.88" width="8.94" x="181.61" y="155.87"/>
   <rect fill="#ebea00" height="4.04" id="rect926-8" stroke-linecap="round" stroke-miterlimit="2.9" stroke-width="3.97" width="9.08" x="182.91" y="149.42"/>
   <rect fill="#f4f2ed" height="3.93" id="rect926-8-1" stroke-linecap="round" stroke-miterlimit="2.9" stroke-width="1.9" width="2.13" x="187.56" y="149.46"/>
   <rect fill="#eba200" height="12.33" id="rect926-9" stroke-linecap="round" stroke-miterlimit="2.9" stroke-width="6.88" width="8.94" x="172.67" y="155.87"/>
   <rect fill="#eba200" height="4.04" id="rect926-9-9" stroke-linecap="round" stroke-miterlimit="2.9" stroke-width="4.52" width="11.77" x="171.14" y="149.42"/>
   <rect fill="#ff7f00" height="2.51" id="rect926-9-6" stroke-linecap="round" stroke-miterlimit="2.9" stroke-width="4.4" transform="matrix(1 0 0 1 0 0)" width="17.89" x="172.67" y="153.36"/>
   <rect fill="#ef1629" height="16.51" id="rect4542-9-4" stroke-linecap="round" stroke-miterlimit="2.9" stroke-width="6.88" transform="rotate(5.41896 1.14652e-7 -87)" width="16.51" x="175.68" y="102.34"/>
   <rect fill="#6d85c3" height="71.95" id="rect4574" ry="4.9" stroke-linecap="round" stroke-miterlimit="2.9" stroke-width="6.88" width="104.67" x="59.63" y="78.06"/>
   <rect fill="#272036" height="71.95" id="rect4574-9" ry="4.9" stroke-linecap="round" stroke-miterlimit="2.9" stroke-width="6.88" width="104.67" x="55.02" y="77.99"/>
   <rect fill="#6d85c3" height="54.64" id="rect841" ry="2.99" stroke-linecap="round" stroke-miterlimit="2.9" stroke-width="7.01" transform="matrix(1 0 -0.268708 0.963222 0 0)" width="20.47" x="131.38" y="121.56"/>
   <rect fill="#3f3f3f" height="8.94" id="rect849-4-7-9" stroke-linecap="round" stroke-miterlimit="2.9" stroke-width="17.95" transform="matrix(1 0 0 1 0 0)" width="253.81" x="3.17" y="168.2"/>
   <rect fill="#2e2b3d" height="54.64" id="rect841-5" ry="2.99" stroke-linecap="round" stroke-miterlimit="2.9" stroke-width="7.01" transform="matrix(1 0 -0.268708 0.963222 0 0)" width="20.47" x="129.2" y="119.86"/>
   <rect fill="#2e2b3d" height="4.5" id="rect4768" ry="1.64" stroke-linecap="round" stroke-miterlimit="2.9" stroke-width="7.47" width="41.97" x="74.74" y="163.68"/>
   <rect fill="#6d85c3" height="4.5" id="rect4768-2" ry="1.64" stroke-linecap="round" stroke-miterlimit="2.9" stroke-width="5.2" width="20.36" x="112.85" y="163.7"/>
  </g>
 </g>
</svg>